<svg
  viewBox="0 0 24 24"
  fill="none"
  xmlns="http://www.w3.org/2000/svg"
  preserveAspectRatio="xMidYMid meet"
  height="100%"
  width="100%"
>
  <path
    fill-rule="evenodd"
    clip-rule="evenodd"
    d="M1.6746 16.4738L9.41726 3.37079C10.5784 1.4057 13.4216 1.4057 14.5828 3.37079L22.3255 16.4738C23.5072 18.4736 22.0656 21 19.7427 21L4.25739 21C1.93449 21 0.492873 18.4737 1.6746 16.4738Z"
    fill="url(#paint0_linear_39181_1219)"
  ></path>
  <path
    fill-rule="evenodd"
    clip-rule="evenodd"
    d="M10.75 18.5H12.25C12.8023 18.5 13.25 18.0523 13.25 17.5V15.5H11.75C11.1978 15.5 10.75 15.9477 10.75 16.5V18.5ZM10.75 14H12.25C12.8023 14 13.25 13.5523 13.25 13V7.5H11.75C11.1978 7.5 10.75 7.94772 10.75 8.5V14Z"
    fill="white"
  ></path>
  <defs>
    <linearGradient
      id="paint0_linear_39181_1219"
      x1="5.1609"
      y1="5.37026"
      x2="17.2333"
      y2="18.954"
      gradientUnits="userSpaceOnUse"
    >
      <stop stop-color="#FAB619"></stop>
      <stop offset="1" stop-color="#FAB619" stop-opacity="0.7"></stop>
    </linearGradient>
  </defs>
</svg>
