<svg width="170" height="17" viewBox="0 0 170 17" fill="none" xmlns="http://www.w3.org/2000/svg">
<path d="M1.03906 9.24023L2.11133 9.14648C2.16211 9.57617 2.2793 9.92969 2.46289 10.207C2.65039 10.4805 2.93945 10.7031 3.33008 10.875C3.7207 11.043 4.16016 11.127 4.64844 11.127C5.08203 11.127 5.46484 11.0625 5.79688 10.9336C6.12891 10.8047 6.375 10.6289 6.53516 10.4062C6.69922 10.1797 6.78125 9.93359 6.78125 9.66797C6.78125 9.39844 6.70312 9.16406 6.54688 8.96484C6.39062 8.76172 6.13281 8.5918 5.77344 8.45508C5.54297 8.36523 5.0332 8.22656 4.24414 8.03906C3.45508 7.84766 2.90234 7.66797 2.58594 7.5C2.17578 7.28516 1.86914 7.01953 1.66602 6.70312C1.4668 6.38281 1.36719 6.02539 1.36719 5.63086C1.36719 5.19727 1.49023 4.79297 1.73633 4.41797C1.98242 4.03906 2.3418 3.75195 2.81445 3.55664C3.28711 3.36133 3.8125 3.26367 4.39062 3.26367C5.02734 3.26367 5.58789 3.36719 6.07227 3.57422C6.56055 3.77734 6.93555 4.07812 7.19727 4.47656C7.45898 4.875 7.59961 5.32617 7.61914 5.83008L6.5293 5.91211C6.4707 5.36914 6.27148 4.95898 5.93164 4.68164C5.5957 4.4043 5.09766 4.26562 4.4375 4.26562C3.75 4.26562 3.24805 4.39258 2.93164 4.64648C2.61914 4.89648 2.46289 5.19922 2.46289 5.55469C2.46289 5.86328 2.57422 6.11719 2.79688 6.31641C3.01562 6.51562 3.58594 6.7207 4.50781 6.93164C5.43359 7.13867 6.06836 7.32031 6.41211 7.47656C6.91211 7.70703 7.28125 8 7.51953 8.35547C7.75781 8.70703 7.87695 9.11328 7.87695 9.57422C7.87695 10.0312 7.74609 10.4629 7.48438 10.8691C7.22266 11.2715 6.8457 11.5859 6.35352 11.8125C5.86523 12.0352 5.31445 12.1465 4.70117 12.1465C3.92383 12.1465 3.27148 12.0332 2.74414 11.8066C2.2207 11.5801 1.80859 11.2402 1.50781 10.7871C1.21094 10.3301 1.05469 9.81445 1.03906 9.24023ZM13.5547 9.99609L14.6445 10.1309C14.4727 10.7676 14.1543 11.2617 13.6895 11.6133C13.2246 11.9648 12.6309 12.1406 11.9082 12.1406C10.998 12.1406 10.2754 11.8613 9.74023 11.3027C9.20898 10.7402 8.94336 9.95312 8.94336 8.94141C8.94336 7.89453 9.21289 7.08203 9.75195 6.50391C10.291 5.92578 10.9902 5.63672 11.8496 5.63672C12.6816 5.63672 13.3613 5.91992 13.8887 6.48633C14.416 7.05273 14.6797 7.84961 14.6797 8.87695C14.6797 8.93945 14.6777 9.0332 14.6738 9.1582H10.0332C10.0723 9.8418 10.2656 10.3652 10.6133 10.7285C10.9609 11.0918 11.3945 11.2734 11.9141 11.2734C12.3008 11.2734 12.6309 11.1719 12.9043 10.9688C13.1777 10.7656 13.3945 10.4414 13.5547 9.99609ZM10.0918 8.29102H13.5664C13.5195 7.76758 13.3867 7.375 13.168 7.11328C12.832 6.70703 12.3965 6.50391 11.8613 6.50391C11.377 6.50391 10.9688 6.66602 10.6367 6.99023C10.3086 7.31445 10.127 7.74805 10.0918 8.29102ZM20.0352 9.7207L21.0723 9.85547C20.959 10.5703 20.668 11.1309 20.1992 11.5371C19.7344 11.9395 19.1621 12.1406 18.4824 12.1406C17.6309 12.1406 16.9453 11.8633 16.4258 11.3086C15.9102 10.75 15.6523 9.95117 15.6523 8.91211C15.6523 8.24023 15.7637 7.65234 15.9863 7.14844C16.209 6.64453 16.5469 6.26758 17 6.01758C17.457 5.76367 17.9531 5.63672 18.4883 5.63672C19.1641 5.63672 19.7168 5.80859 20.1465 6.15234C20.5762 6.49219 20.8516 6.97656 20.9727 7.60547L19.9473 7.76367C19.8496 7.3457 19.6758 7.03125 19.4258 6.82031C19.1797 6.60938 18.8809 6.50391 18.5293 6.50391C17.998 6.50391 17.5664 6.69531 17.2344 7.07812C16.9023 7.45703 16.7363 8.05859 16.7363 8.88281C16.7363 9.71875 16.8965 10.3262 17.2168 10.7051C17.5371 11.084 17.9551 11.2734 18.4707 11.2734C18.8848 11.2734 19.2305 11.1465 19.5078 10.8926C19.7852 10.6387 19.9609 10.248 20.0352 9.7207ZM26.0527 12V11.0859C25.5684 11.7891 24.9102 12.1406 24.0781 12.1406C23.7109 12.1406 23.3672 12.0703 23.0469 11.9297C22.7305 11.7891 22.4941 11.6133 22.3379 11.4023C22.1855 11.1875 22.0781 10.9258 22.0156 10.6172C21.9727 10.4102 21.9512 10.082 21.9512 9.63281V5.77734H23.0059V9.22852C23.0059 9.7793 23.0273 10.1504 23.0703 10.3418C23.1367 10.6191 23.2773 10.8379 23.4922 10.998C23.707 11.1543 23.9727 11.2324 24.2891 11.2324C24.6055 11.2324 24.9023 11.1523 25.1797 10.9922C25.457 10.8281 25.6523 10.6074 25.7656 10.3301C25.8828 10.0488 25.9414 9.64258 25.9414 9.11133V5.77734H26.9961V12H26.0527ZM28.6426 12V5.77734H29.5918V6.7207C29.834 6.2793 30.0566 5.98828 30.2598 5.84766C30.4668 5.70703 30.6934 5.63672 30.9395 5.63672C31.2949 5.63672 31.6562 5.75 32.0234 5.97656L31.6602 6.95508C31.4023 6.80273 31.1445 6.72656 30.8867 6.72656C30.6562 6.72656 30.4492 6.79688 30.2656 6.9375C30.082 7.07422 29.9512 7.26562 29.873 7.51172C29.7559 7.88672 29.6973 8.29688 29.6973 8.74219V12H28.6426ZM36.9102 9.99609L38 10.1309C37.8281 10.7676 37.5098 11.2617 37.0449 11.6133C36.5801 11.9648 35.9863 12.1406 35.2637 12.1406C34.3535 12.1406 33.6309 11.8613 33.0957 11.3027C32.5645 10.7402 32.2988 9.95312 32.2988 8.94141C32.2988 7.89453 32.5684 7.08203 33.1074 6.50391C33.6465 5.92578 34.3457 5.63672 35.2051 5.63672C36.0371 5.63672 36.7168 5.91992 37.2441 6.48633C37.7715 7.05273 38.0352 7.84961 38.0352 8.87695C38.0352 8.93945 38.0332 9.0332 38.0293 9.1582H33.3887C33.4277 9.8418 33.6211 10.3652 33.9688 10.7285C34.3164 11.0918 34.75 11.2734 35.2695 11.2734C35.6562 11.2734 35.9863 11.1719 36.2598 10.9688C36.5332 10.7656 36.75 10.4414 36.9102 9.99609ZM33.4473 8.29102H36.9219C36.875 7.76758 36.7422 7.375 36.5234 7.11328C36.1875 6.70703 35.752 6.50391 35.2168 6.50391C34.7324 6.50391 34.3242 6.66602 33.9922 6.99023C33.6641 7.31445 33.4824 7.74805 33.4473 8.29102ZM43.3672 12V11.2148C42.9727 11.832 42.3926 12.1406 41.627 12.1406C41.1309 12.1406 40.6738 12.0039 40.2559 11.7305C39.8418 11.457 39.5195 11.0762 39.2891 10.5879C39.0625 10.0957 38.9492 9.53125 38.9492 8.89453C38.9492 8.27344 39.0527 7.71094 39.2598 7.20703C39.4668 6.69922 39.7773 6.31055 40.1914 6.04102C40.6055 5.77148 41.0684 5.63672 41.5801 5.63672C41.9551 5.63672 42.2891 5.7168 42.582 5.87695C42.875 6.0332 43.1133 6.23828 43.2969 6.49219V3.41016H44.3457V12H43.3672ZM40.0332 8.89453C40.0332 9.69141 40.2012 10.2871 40.5371 10.6816C40.873 11.0762 41.2695 11.2734 41.7266 11.2734C42.1875 11.2734 42.5781 11.0859 42.8984 10.7109C43.2227 10.332 43.3848 9.75586 43.3848 8.98242C43.3848 8.13086 43.2207 7.50586 42.8926 7.10742C42.5645 6.70898 42.1602 6.50977 41.6797 6.50977C41.2109 6.50977 40.8184 6.70117 40.502 7.08398C40.1895 7.4668 40.0332 8.07031 40.0332 8.89453ZM50.3223 12H49.3438V3.41016H50.3984V6.47461C50.8438 5.91602 51.4121 5.63672 52.1035 5.63672C52.4863 5.63672 52.8477 5.71484 53.1875 5.87109C53.5312 6.02344 53.8125 6.24023 54.0312 6.52148C54.2539 6.79883 54.4277 7.13477 54.5527 7.5293C54.6777 7.92383 54.7402 8.3457 54.7402 8.79492C54.7402 9.86133 54.4766 10.6855 53.9492 11.2676C53.4219 11.8496 52.7891 12.1406 52.0508 12.1406C51.3164 12.1406 50.7402 11.834 50.3223 11.2207V12ZM50.3105 8.8418C50.3105 9.58789 50.4121 10.127 50.6152 10.459C50.9473 11.002 51.3965 11.2734 51.9629 11.2734C52.4238 11.2734 52.8223 11.0742 53.1582 10.6758C53.4941 10.2734 53.6621 9.67578 53.6621 8.88281C53.6621 8.07031 53.5 7.4707 53.1758 7.08398C52.8555 6.69727 52.4668 6.50391 52.0098 6.50391C51.5488 6.50391 51.1504 6.70508 50.8145 7.10742C50.4785 7.50586 50.3105 8.08398 50.3105 8.8418ZM55.9824 14.3965L55.8652 13.4062C56.0957 13.4688 56.2969 13.5 56.4688 13.5C56.7031 13.5 56.8906 13.4609 57.0312 13.3828C57.1719 13.3047 57.2871 13.1953 57.377 13.0547C57.4434 12.9492 57.5508 12.6875 57.6992 12.2695C57.7188 12.2109 57.75 12.125 57.793 12.0117L55.4316 5.77734H56.5684L57.8633 9.38086C58.0312 9.83789 58.1816 10.3184 58.3145 10.8223C58.4355 10.3379 58.5801 9.86523 58.748 9.4043L60.0781 5.77734H61.1328L58.7656 12.1055C58.5117 12.7891 58.3145 13.2598 58.1738 13.5176C57.9863 13.8652 57.7715 14.1191 57.5293 14.2793C57.2871 14.4434 56.998 14.5254 56.6621 14.5254C56.459 14.5254 56.2324 14.4824 55.9824 14.3965Z" fill="#C0C9D4"/>
<path d="M122.217 8.04512C123.292 8.04512 124.036 7.54879 124.036 6.42671C124.036 5.30463 123.292 4.80831 122.217 4.80831H120.138V8.04389L122.217 8.04512ZM119.051 3.92188H122.336C123.801 3.92188 125.124 4.61844 125.124 6.42488C125.124 8.22032 123.849 8.8821 122.36 8.8821H120.138V12.1903H119.051V3.92188Z" fill="#C0C9D4"/>
<path d="M127.653 11.5894C128.894 11.5894 129.626 10.7274 129.626 9.53391V9.15785L127.901 9.33489C126.909 9.42952 126.375 9.83122 126.375 10.54C126.377 11.1169 126.755 11.5894 127.653 11.5894ZM127.782 8.67129L129.625 8.49425V7.9039C129.625 7.18292 129.177 6.60417 128.16 6.61577C127.321 6.61577 126.66 6.98206 126.613 7.82088H125.656C125.703 6.41675 126.79 5.85938 128.159 5.85938C129.79 5.85938 130.652 6.65301 130.652 8.10414V12.1944H129.707V10.9154C129.331 11.7903 128.515 12.3324 127.345 12.3324C125.951 12.3324 125.348 11.5528 125.348 10.5724C125.349 9.42768 126.188 8.82513 127.782 8.66946V8.67129Z" fill="#C0C9D4"/>
<path d="M137.621 6.00162H138.578V7.17071C138.921 6.33189 139.641 5.85938 140.598 5.85938C141.543 5.85938 142.228 6.3087 142.452 7.20672C142.796 6.3441 143.539 5.85938 144.509 5.85938C145.701 5.85938 146.469 6.60416 146.469 8.00951V12.192H145.432V8.28485C145.432 7.31539 145.004 6.71345 144.156 6.71345C143.187 6.71345 142.561 7.48145 142.561 8.75737V12.192H141.533V8.28485C141.533 7.316 141.096 6.71406 140.246 6.71406C139.277 6.71406 138.663 7.48144 138.663 8.75798V12.1956H137.625L137.621 6.00162Z" fill="#C0C9D4"/>
<path d="M152.162 8.70743C152.138 7.4193 151.453 6.61589 150.401 6.61589C149.385 6.61589 148.631 7.32467 148.535 8.70743H152.162ZM150.401 5.86133C152.172 5.86133 153.189 6.9364 153.189 9.2526V9.39423H148.526C148.609 10.835 149.377 11.5798 150.487 11.5798C151.314 11.5798 151.87 11.1524 152.13 10.5163L153.11 10.5774C152.791 11.6524 151.882 12.3374 150.485 12.3374C148.701 12.3374 147.484 11.2855 147.484 9.10181C147.484 6.92297 148.712 5.86133 150.401 5.86133Z" fill="#C0C9D4"/>
<path d="M154.281 6.00162H155.238V7.19451C155.593 6.3557 156.361 5.85938 157.447 5.85938C158.794 5.85938 159.562 6.59196 159.562 8.10414V12.1944H158.524V8.43503C158.524 7.31234 158.087 6.7104 157.094 6.7104C155.934 6.7104 155.324 7.51379 155.324 8.7543V12.192H154.286V6.00162H154.281Z" fill="#C0C9D4"/>
<path d="M162.549 6.79272V10.408C162.549 11.187 162.714 11.4355 163.342 11.4355C163.583 11.4313 163.824 11.411 164.063 11.3744V12.2035C163.763 12.261 163.458 12.2886 163.153 12.2859C161.948 12.2859 161.511 11.8134 161.511 10.5735V6.79272H160.211V6.02472H161.204C161.475 6.02472 161.582 5.9185 161.582 5.65843V4.64258H162.55V6.00092H164.063V6.79455L162.549 6.79272Z" fill="#C0C9D4"/>
<path d="M165.723 10.3837C165.806 11.2109 166.42 11.5772 167.401 11.5772C168.322 11.5772 168.936 11.2469 168.936 10.6206C168.936 10.1597 168.593 9.88798 167.743 9.62792L166.408 9.23843C165.451 8.95456 164.967 8.37581 164.967 7.537C164.967 6.34349 165.947 5.85938 167.235 5.85938C168.606 5.85938 169.692 6.41491 169.81 7.69083L168.865 7.75189C168.759 6.9723 168.086 6.6176 167.235 6.6176C166.479 6.5944 165.982 6.92285 165.982 7.50403C165.982 7.99975 166.337 8.28302 166.987 8.47288L168.333 8.86298C169.371 9.15846 169.963 9.67798 169.963 10.5724C169.963 11.7189 168.983 12.333 167.376 12.333C165.864 12.333 164.884 11.7536 164.777 10.4307L165.723 10.3837Z" fill="#C0C9D4"/>
<path d="M136.684 6.01367L134.38 12.9122C133.953 14.2589 133.506 14.7076 132.304 14.7076C132.115 14.7076 131.877 14.696 131.619 14.6722V13.8694C131.832 13.881 132.056 13.8933 132.245 13.8933C132.883 13.8933 133.155 13.657 133.439 12.7596L133.616 12.2046L131.27 6.01367H132.404L134.122 10.8976L135.571 6.01367H136.684Z" fill="#C0C9D4"/>
<path d="M85.8125 8.25909C85.8125 5.94473 87.531 4.19141 89.8796 4.19141C91.7556 4.19141 93.2165 5.35134 93.6768 7.02285H91.9577C91.5871 6.21396 90.8344 5.71946 89.868 5.71946C88.4187 5.71946 87.4303 6.78721 87.4303 8.25909C87.4303 9.73098 88.4187 10.7981 89.868 10.7981C90.8344 10.7981 91.5871 10.3036 91.9577 9.49472H93.6768C93.2165 11.1687 91.7556 12.3262 89.8796 12.3262C87.531 12.3256 85.8125 10.5728 85.8125 8.25909Z" fill="#C0C9D4"/>
<path d="M96.1068 3.92188H94.5V12.1922H96.1068V3.92188Z" fill="#C0C9D4"/>
<path d="M98.646 9.10156C98.646 10.1235 99.3426 10.7981 100.241 10.7981C101.14 10.7981 101.837 10.1266 101.837 9.10156C101.837 8.09059 101.14 7.40501 100.241 7.40501C99.342 7.40501 98.646 8.09059 98.646 9.10156ZM103.469 9.10156C103.469 10.9666 102.053 12.3262 100.244 12.3262C98.4463 12.3262 97.0312 10.9556 97.0312 9.10156C97.0312 7.23651 98.4689 5.87695 100.244 5.87695C102.028 5.87695 103.466 7.23651 103.466 9.10156H103.469Z" fill="#C0C9D4"/>
<path d="M110.105 6.01233V12.1917H108.498V11.337C108.048 11.9652 107.443 12.326 106.589 12.326C105.229 12.326 104.387 11.3938 104.387 9.88772V6.01172H105.994V9.53974C105.994 10.3486 106.299 10.798 107.128 10.798C108.016 10.798 108.5 10.2699 108.5 9.25891V6.01172H110.106L110.105 6.01233Z" fill="#C0C9D4"/>
<path d="M115.756 9.10249C115.756 8.09152 115.07 7.40594 114.172 7.40594C113.274 7.40594 112.611 8.09152 112.611 9.10249C112.611 10.1244 113.282 10.799 114.172 10.799C115.071 10.799 115.756 10.1244 115.756 9.10249ZM117.362 3.92188V12.1922H115.755V11.3607C115.328 11.9449 114.676 12.3271 113.812 12.3271C112.205 12.3271 110.992 11.0011 110.992 9.10249C110.992 7.19227 112.213 5.87788 113.8 5.87788C114.183 5.87031 114.562 5.9576 114.903 6.13197C115.244 6.30635 115.536 6.5624 115.754 6.87725V3.92188H117.362Z" fill="#C0C9D4"/>
<path d="M73.625 16.25C78.1123 16.25 81.75 12.6123 81.75 8.125C81.75 3.63769 78.1123 0 73.625 0C69.1377 0 65.5 3.63769 65.5 8.125C65.5 12.6123 69.1377 16.25 73.625 16.25Z" fill="#C0C9D4"/>
<path d="M71.8789 10.3971L77.1407 5.13534C77.2708 5.00513 77.4252 4.90184 77.5952 4.83136C77.7652 4.76088 77.9475 4.72461 78.1315 4.72461C78.3156 4.72461 78.4978 4.76088 78.6678 4.83136C78.8378 4.90184 78.9923 5.00513 79.1223 5.13534C79.2525 5.26541 79.3558 5.41986 79.4263 5.58988C79.4968 5.75989 79.5331 5.94213 79.5331 6.12617C79.5331 6.31021 79.4968 6.49245 79.4263 6.66246C79.3558 6.83247 79.2525 6.98693 79.1223 7.11699L75.8471 10.3971C75.3205 10.9228 74.607 11.218 73.863 11.218C73.119 11.218 72.4054 10.9228 71.8789 10.3971Z" fill="white"/>
<path d="M75.3713 5.85408L70.1095 11.1159C69.9795 11.2461 69.825 11.3494 69.655 11.4199C69.485 11.4903 69.3027 11.5266 69.1187 11.5266C68.9347 11.5266 68.7524 11.4903 68.5824 11.4199C68.4124 11.3494 68.2579 11.2461 68.1279 11.1159C67.8658 10.8527 67.7188 10.4965 67.7188 10.1251C67.7188 9.75366 67.8658 9.39739 68.1279 9.13424L71.4031 5.85408C71.9297 5.32843 72.6432 5.0332 73.3872 5.0332C74.1312 5.0332 74.8448 5.32843 75.3713 5.85408Z" fill="white"/>
</svg>
