<svg width="38" height="14" viewBox="0 0 38 14" fill="none" xmlns="http://www.w3.org/2000/svg">
<path d="M25.3564 8.59766H28.9287V9.58673H26.4469V10.4236H28.8535V11.2606H26.4469V12.1355H28.9287V13.0865H25.3564V8.59766Z" fill="currentColor"/>
<path d="M35.7713 10.3466C37.0874 10.4227 37.2002 11.1075 37.2002 11.7922C37.2002 12.6291 36.5233 13.0856 35.8089 13.0856H33.5151V12.1346H35.2825C35.5833 12.1346 36.0345 12.1346 36.0345 11.7161C36.0345 11.5259 35.9593 11.3737 35.6209 11.3357C35.4705 11.2977 34.944 11.2977 34.8688 11.2977C33.6656 11.2596 33.4023 10.651 33.4023 9.92817C33.4023 9.09126 33.9664 8.63477 34.6808 8.63477H36.9745V9.5858H35.3201C34.944 9.5858 34.5304 9.54776 34.5304 9.96621C34.5304 10.2325 34.7184 10.3086 34.9816 10.3086C35.0944 10.3086 35.6961 10.3466 35.7713 10.3466Z" fill="currentColor"/>
<path d="M31.6726 10.3466C32.9887 10.4227 33.1015 11.1075 33.1015 11.7922C33.1015 12.6291 32.4247 13.0856 31.7102 13.0856H29.4165V12.1346H31.1838C31.4846 12.1346 31.9359 12.1346 31.9359 11.7161C31.9359 11.5259 31.8607 11.3737 31.5222 11.3357C31.3718 11.2977 30.8454 11.2977 30.7702 11.2977C29.5669 11.2596 29.3037 10.651 29.3037 9.92817C29.3037 9.09126 29.8677 8.63477 30.5822 8.63477H32.8759V9.5858H31.2214C30.8454 9.5858 30.4318 9.54776 30.4318 9.96621C30.4318 10.2325 30.6198 10.3086 30.883 10.3086C30.9958 10.3086 31.5974 10.3466 31.6726 10.3466Z" fill="currentColor"/>
<path d="M18.8142 8.6357H15.0164L13.7756 10.0052L12.5723 8.59766H8.32324V13.0485H12.4595L13.7756 11.5649L15.054 13.0485H17.1221V11.5268H18.5886C19.1527 11.5268 20.1679 11.4888 20.1679 9.9291C20.1303 8.86395 19.3783 8.6357 18.8142 8.6357ZM11.8954 12.1355H9.3761V11.2606H11.7826V10.4236H9.3761V9.58673H12.0083L13.0611 10.8041L11.8954 12.1355ZM16.0317 12.6681L14.49 10.8041L16.0317 9.05415V12.6681ZM18.4758 10.6519H17.1221V9.58673H18.4758C18.9271 9.58673 19.0775 9.89106 19.0775 10.0813C19.0775 10.3856 18.9271 10.6519 18.4758 10.6519Z" fill="currentColor"/>
<path d="M24.0785 11.0704C24.6802 10.7661 24.8306 10.3857 24.8306 9.85311C24.8306 8.90208 24.0785 8.67383 23.5145 8.67383H20.6943V13.1247H21.7848V11.565H23.2137C23.5897 11.565 23.7401 11.9454 23.7401 12.3258L23.7777 13.1627H24.8306L24.793 12.1736C24.793 11.4508 24.5674 11.1085 24.0785 11.0704ZM23.1385 10.6139H21.7848V9.58682H23.1385C23.5897 9.58682 23.7401 9.89115 23.7401 10.0814C23.7401 10.3857 23.5897 10.6139 23.1385 10.6139Z" fill="currentColor"/>
<path d="M22.234 0.912109H21.1436V5.40099H22.234V0.912109Z" fill="currentColor"/>
<path d="M12.2695 0.912109H15.8041V1.86314H13.3224V2.70005H15.7289V3.575H13.3224V4.44996H15.8041V5.36295H12.2695V0.912109Z" fill="currentColor"/>
<path d="M19.8276 3.34582C20.4292 3.04149 20.5796 2.66108 20.5796 2.1285C20.5796 1.17747 19.8276 0.949219 19.2635 0.949219H16.4434V5.40006H17.5338V3.84036H18.9627C19.3387 3.84036 19.4891 4.22078 19.4891 4.60119L19.5267 5.4381H20.5796L20.542 4.52511C20.5044 3.72624 20.3164 3.38387 19.8276 3.34582ZM18.8875 2.88933H17.5338V1.86221H18.8875C19.3387 1.86221 19.4891 2.16654 19.4891 2.35675C19.4891 2.66108 19.3011 2.88933 18.8875 2.88933Z" fill="currentColor"/>
<path d="M9.75114 0.912109L8.43507 3.91738L7.11899 0.912109H5.4269V5.21078L3.54679 0.912109H2.11791L0.200195 5.36295H1.32826L1.74188 4.37387H3.92281L4.33643 5.36295H6.51736V2.05335L7.98384 5.36295H8.9615L10.428 2.09139V5.36295H11.5184V0.912109H9.75114ZM2.11791 3.42284L2.75714 1.86314L3.43398 3.42284H2.11791Z" fill="currentColor"/>
<path d="M33.4035 0.913042V3.99439L31.561 0.913042H29.9441V5.09759L28.1016 0.913042H26.6728L25.1687 4.3748C25.1687 4.3748 24.5294 4.3748 24.4918 4.3748C24.2286 4.33676 23.815 4.14656 23.815 3.34769V3.00532C23.815 1.94016 24.379 1.86408 25.0935 1.86408H25.7703V0.875H24.3414C23.8526 0.875 22.7621 1.25541 22.7245 3.0814C22.6869 4.29872 23.2134 5.32584 24.4166 5.32584H25.8455L26.2591 4.33676H28.4401L28.8537 5.32584H30.997V2.05428L32.9523 5.32584H34.4188V0.913042H33.4035ZM26.748 3.42377L27.3872 1.86408L28.064 3.42377H26.748Z" fill="currentColor"/>
</svg>
