<svg width="34" height="14" viewBox="0 0 34 14" fill="none" xmlns="http://www.w3.org/2000/svg">
<path fill-rule="evenodd" clip-rule="evenodd" d="M23.2202 7.95063L23.5578 8.0604C23.535 8.16216 23.4994 8.2472 23.4509 8.3155C23.4025 8.38417 23.3419 8.43593 23.2691 8.47086C23.197 8.50515 23.1052 8.52234 22.9937 8.52234C22.8581 8.52234 22.7472 8.50148 22.6611 8.45983C22.5757 8.4169 22.5017 8.34216 22.439 8.23552C22.3768 8.12888 22.3457 7.99218 22.3457 7.82552C22.3457 7.60369 22.4004 7.43334 22.5098 7.31439C22.62 7.19488 22.7753 7.13512 22.9756 7.13512C23.1326 7.13512 23.2559 7.16941 23.3456 7.23808C23.4359 7.30675 23.5028 7.41155 23.5465 7.55248L23.2063 7.63338C23.1948 7.59238 23.1824 7.5626 23.1691 7.54421C23.1477 7.51231 23.1215 7.48813 23.0904 7.47159C23.0593 7.45449 23.0244 7.44584 22.9858 7.44584C22.8986 7.44584 22.8317 7.48354 22.7851 7.55892C22.75 7.61536 22.7323 7.70352 22.7323 7.82368C22.7323 7.9726 22.7535 8.07465 22.7956 8.1298C22.8379 8.18496 22.897 8.21254 22.973 8.21254C23.0468 8.21254 23.1023 8.19048 23.1397 8.14635C23.1779 8.10222 23.2054 8.03787 23.2224 7.9533L23.2202 7.95063ZM23.6955 7.82884C23.6955 7.61004 23.7522 7.4397 23.8656 7.31771C23.9789 7.19581 24.1367 7.13477 24.3391 7.13477C24.5466 7.13477 24.7066 7.1948 24.819 7.31495C24.9315 7.43446 24.9877 7.60223 24.9877 7.81836C24.9877 7.97519 24.9631 8.10371 24.9137 8.20409C24.8653 8.30402 24.7946 8.38216 24.7017 8.43852C24.6094 8.49404 24.4943 8.5218 24.3564 8.5218C24.2163 8.5218 24.1 8.4979 24.0077 8.4501C23.9166 8.40229 23.8422 8.32599 23.7847 8.22138C23.7277 8.11713 23.6992 7.98668 23.6992 7.82976L23.6955 7.82884ZM24.0806 7.83066C24.0806 7.96598 24.1038 8.06325 24.1503 8.12245C24.1971 8.18156 24.2606 8.21116 24.3409 8.21116C24.4235 8.21116 24.4876 8.18202 24.5332 8.12364C24.5782 8.06536 24.6007 7.9613 24.6007 7.81173C24.6007 7.68551 24.5768 7.59348 24.5289 7.53566C24.4817 7.47683 24.4176 7.44741 24.3366 7.44741C24.2586 7.44741 24.1962 7.47683 24.1494 7.53566C24.1022 7.59385 24.0785 7.69167 24.0785 7.82892L24.0806 7.83066ZM25.1919 7.15759H25.6985L25.8942 7.97337L26.0888 7.15759H26.5939V8.49829H26.2794V7.47603L26.0358 8.49829H25.7512L25.5085 7.47603V8.49829H25.1923V7.15768L25.1919 7.15759ZM26.8369 7.15757H27.4774C27.6167 7.15757 27.721 7.19324 27.7901 7.26458C27.8599 7.33583 27.8948 7.43722 27.8948 7.56868C27.8948 7.70391 27.8568 7.80954 27.7808 7.88557C27.7053 7.96159 27.59 7.99956 27.4348 7.99956H27.2239V8.49727H26.837V7.1561L26.8369 7.15757ZM27.2239 7.7291H27.3179C27.3919 7.7291 27.4439 7.7154 27.4738 7.68801C27.5038 7.65997 27.5188 7.62439 27.5188 7.58109C27.5188 7.53899 27.5058 7.50332 27.4798 7.47409C27.4538 7.44467 27.405 7.42996 27.3333 7.42996H27.2236V7.72873L27.2239 7.7291ZM28.0971 7.15759H28.4817V8.16826H29.0825V8.49829H28.0962V7.15768L28.0971 7.15759ZM29.2748 7.15759H29.6603V8.49829H29.274V7.15768L29.2748 7.15759ZM30.7029 8.27702H30.2636L30.203 8.49838H29.809L30.2773 7.15805H30.6969L31.1653 8.4993H30.7628L30.7012 8.27867L30.7029 8.27702ZM30.6208 7.98712L30.4828 7.50523L30.3457 7.98712H30.6191H30.6208ZM31.2918 7.15758H31.6516L32.1208 7.89927V7.15758H32.484V8.49828H32.1208L31.6542 7.76211V8.49847H31.2918V7.15748V7.15758ZM32.6533 7.15759H33.8241V7.48872H33.431V8.49829H33.0464V7.4889H32.6533V7.15777V7.15759Z" fill="currentColor"/>
<path fill-rule="evenodd" clip-rule="evenodd" d="M5.48991 5.5332H5.0166V6.99176L5.01814 6.99112L5.54632 6.99204C5.54632 6.99204 6.14457 6.96299 6.2326 6.37022C6.242 6.35644 6.24542 6.11006 6.2326 6.07053C6.17876 5.56667 5.48991 5.5332 5.48991 5.5332Z" fill="currentColor"/>
<path fill-rule="evenodd" clip-rule="evenodd" d="M5.08057 8.22945C5.06391 8.2288 5.05066 8.24241 5.05066 8.25951V9.87867C5.05066 9.89586 5.03733 9.9102 5.02092 9.9102H3.08616C3.06958 9.9102 3.0565 9.89586 3.0565 9.87803L3.05658 9.8783V4.35148C3.05658 4.33429 3.07026 4.31912 3.0865 4.31912C3.0865 4.31912 5.58055 4.32004 5.59337 4.31912C6.23128 4.28694 8.16903 4.47981 8.16903 6.23953C8.16903 8.46966 5.08057 8.22945 5.08057 8.22945ZM15.5173 1.32527C16.1874 1.32527 16.7315 1.87621 16.7315 2.55631C16.7315 3.2364 16.188 3.78771 15.5177 3.78771L15.5174 3.78826C14.8468 3.78826 14.3035 3.23705 14.3035 2.55677C14.3035 1.87658 14.8468 1.32527 15.5173 1.32527ZM12.4875 9.95316C12.4268 9.95316 11.8534 9.97687 11.5611 9.95316C8.56551 9.74962 8.56551 7.45128 8.56551 7.38463V6.83903C8.56551 6.73625 8.67234 4.48838 11.5611 4.23925C11.7525 4.2102 12.4448 4.21397 12.4875 4.23925C13.2823 4.29009 13.543 4.47276 13.543 4.47276C13.5575 4.48121 13.5695 4.50273 13.5695 4.52074V5.93389C13.5695 5.95145 13.5575 5.9588 13.5439 5.94988L13.5404 5.95034C13.5404 5.95034 13.0764 5.64238 12.4978 5.55872H12.008C10.6979 5.67823 10.6081 6.80713 10.6081 6.80713C10.6064 6.8246 10.6047 6.8531 10.6047 6.87056V7.2723C10.6047 7.28976 10.6064 7.31826 10.6081 7.33573C10.6081 7.33573 10.6722 8.38924 12.0089 8.63102C12.1055 8.64849 12.232 8.6632 12.4995 8.63102C13.4422 8.53265 13.6567 8.34696 13.6567 8.34696C13.6712 8.33767 13.6823 8.34411 13.6823 8.36213V8.59526C13.9606 8.64527 14.2495 8.78638 14.5246 8.9867V4.32199V4.32181H16.5108V7.79997C17.2111 6.71529 17.9544 5.6102 18.2026 5.24248L18.2023 5.24221L16.0147 0L0 0.978134L4.43668 14L12.9772 11.1044C12.7372 10.7323 12.5647 10.3291 12.5011 9.95288C12.4965 9.95288 12.4921 9.95316 12.4875 9.95316Z" fill="currentColor"/>
<path fill-rule="evenodd" clip-rule="evenodd" d="M15.5727 12.5927C15.7342 12.5927 15.8577 12.5927 16.0618 12.4952C16.7672 12.0964 19.1409 5.86084 21.6446 3.94282C21.6591 3.9305 21.6799 3.91266 21.6919 3.89437C21.7079 3.86909 21.7085 3.84326 21.7085 3.84326C21.7085 3.84326 21.7085 3.71547 21.3373 3.71547C19.1083 3.6502 16.7905 8.67601 15.5726 10.6645C15.5572 10.6865 15.4735 10.6645 15.4735 10.6645C15.4735 10.6645 14.6573 9.6284 13.9479 9.23127C13.9334 9.22299 13.8522 9.19633 13.7685 9.20277C13.7129 9.20277 13.383 9.27355 13.2292 9.44914C13.048 9.65506 13.0514 9.77089 13.0531 10.0219C13.054 10.0421 13.0659 10.1257 13.0882 10.168C13.2616 10.4944 14.0539 11.6656 14.7026 12.3118C14.8034 12.3891 14.9564 12.5941 15.5735 12.5941L15.5727 12.5927Z" fill="currentColor"/>
<mask id="mask0_704_44585" style="mask-type:luminance" maskUnits="userSpaceOnUse" x="22" y="1" width="12" height="6">
<path fill-rule="evenodd" clip-rule="evenodd" d="M22.3027 1.98438H34.0004V6.48158H22.3027V1.98438Z" fill="white"/>
</mask>
<g mask="url(#mask0_704_44585)">
<path fill-rule="evenodd" clip-rule="evenodd" d="M22.3027 2.05472H24.1573C24.5231 2.05472 24.8181 2.10804 25.0421 2.21468C25.268 2.32141 25.4545 2.47465 25.6015 2.67433C25.7485 2.87354 25.855 3.10557 25.9212 3.37051C25.9872 3.63527 26.0203 3.91566 26.0203 4.21167C26.0203 4.67564 25.9707 5.03628 25.8716 5.29368C25.7743 5.54861 25.6383 5.76317 25.4638 5.93719C25.2892 6.10883 25.1018 6.22309 24.9016 6.28009C24.6278 6.35851 24.3797 6.39776 24.1574 6.39776H22.3028V2.05325L22.3027 2.05472ZM23.5512 3.03881V5.41336H23.8565C24.1174 5.41336 24.303 5.38275 24.4132 5.32143C24.5234 5.25828 24.6096 5.1498 24.6718 4.996C24.7341 4.83972 24.7652 4.58783 24.7652 4.24034C24.7652 3.78014 24.6952 3.46509 24.5552 3.2953C24.4156 3.1255 24.184 3.04065 23.8605 3.04065H23.5492L23.5512 3.03881ZM26.3599 4.9629L27.547 4.88292C27.5726 5.09069 27.6248 5.2488 27.7034 5.35728C27.8316 5.53314 28.0152 5.62112 28.2546 5.62112C28.4329 5.62112 28.5697 5.57672 28.6649 5.48782C28.7617 5.39709 28.8102 5.29229 28.8102 5.17342C28.8102 5.06127 28.764 4.96079 28.6717 4.87189C28.5794 4.783 28.3663 4.69943 28.0324 4.62092C27.4848 4.48854 27.0943 4.31268 26.8607 4.09325C26.6254 3.87445 26.5077 3.59499 26.5077 3.25485C26.5077 3.03173 26.5675 2.82158 26.6872 2.62421C26.808 2.42499 26.9889 2.26908 27.2299 2.15628C27.4726 2.04165 27.8042 1.98438 28.2247 1.98438C28.7403 1.98438 29.1331 2.08826 29.4033 2.29602C29.6745 2.50194 29.836 2.83013 29.8878 3.28059L28.711 3.35505C28.6797 3.15961 28.6132 3.01739 28.5119 2.92849C28.4121 2.8396 28.2743 2.7952 28.0982 2.7952C27.9529 2.7952 27.8435 2.82893 27.77 2.89632C27.6959 2.96187 27.6589 3.04184 27.6589 3.13626C27.6589 3.20557 27.6891 3.26772 27.7495 3.32287C27.8082 3.38051 27.9478 3.43411 28.1682 3.48375C28.7141 3.61061 29.1045 3.73932 29.3394 3.86986C29.5765 3.99856 29.7483 4.15879 29.8549 4.35065C29.9637 4.54251 30.0181 4.75698 30.0181 4.99416C30.0181 5.27298 29.9463 5.53011 29.8027 5.76545C29.6592 6.00079 29.4589 6.17969 29.2019 6.30205C28.9455 6.42155 28.6217 6.48131 28.2306 6.48131C27.5435 6.48131 27.0674 6.33909 26.8027 6.05475C26.5378 5.77032 26.3879 5.40876 26.3532 4.96998L26.3599 4.9629ZM30.3417 4.9629L31.5288 4.88292C31.5544 5.09069 31.6066 5.2488 31.6852 5.35728C31.8134 5.53314 31.9972 5.62112 32.2365 5.62112C32.4148 5.62112 32.5515 5.57672 32.6467 5.48782C32.744 5.39709 32.7928 5.29229 32.7928 5.17342C32.7928 5.06127 32.7467 4.96079 32.6544 4.87189C32.5621 4.783 32.3489 4.69943 32.0151 4.62092C31.4675 4.48854 31.077 4.31268 30.8434 4.09325C30.608 3.87445 30.4904 3.59499 30.4904 3.25485C30.4904 3.03173 30.55 2.82158 30.669 2.62421C30.7904 2.42499 30.9712 2.26908 31.2117 2.15628C31.4539 2.04165 31.7855 1.98438 32.2065 1.98438C32.7222 1.98438 33.115 2.08826 33.385 2.29602C33.6569 2.50194 33.8184 2.83013 33.8696 3.28059L32.6937 3.35413C32.6618 3.1586 32.5954 3.01647 32.4945 2.92758C32.3953 2.83868 32.2575 2.79428 32.0809 2.79428C31.9355 2.79428 31.8262 2.82802 31.7527 2.8954C31.6786 2.96095 31.6416 3.04129 31.6416 3.13626C31.6416 3.20557 31.6719 3.26772 31.7322 3.32287C31.7908 3.38051 31.9305 3.43411 32.151 3.48375C32.6969 3.60997 33.0874 3.7384 33.3227 3.86894C33.5592 3.99764 33.7309 4.15787 33.8381 4.34973C33.9464 4.54159 34.0005 4.75606 34.0005 4.99324C34.0005 5.27215 33.9289 5.52919 33.7859 5.76453C33.6424 5.99987 33.4418 6.17886 33.1843 6.3014C32.9279 6.42146 32.6042 6.48158 32.2133 6.48158C31.5262 6.48158 31.0502 6.33909 30.7852 6.05411C30.5209 5.76977 30.371 5.40821 30.3357 4.96934L30.3417 4.9629Z" fill="currentColor"/>
</g>
</svg>
