<svg width="27" height="14" viewBox="0 0 27 14" fill="none" xmlns="http://www.w3.org/2000/svg">
  <path
    d="M2.18459 4.75871L0.799805 0.310547H1.39328L2.05741 2.49768C2.24111 3.10358 2.39654 3.63558 2.50959 4.16759H2.52372C2.63676 3.65036 2.82046 3.0888 3.00415 2.51246L3.7248 0.310547H4.31828L2.7922 4.75871H2.18459Z"
    fill="currentColor"
  />
  <path
    fill-rule="evenodd"
    clip-rule="evenodd"
    d="M5.66027 4.37499C5.10919 4.37499 4.62875 4.04988 4.61462 3.26665L6.76245 3.25187C6.76245 3.22738 6.76487 3.19783 6.76771 3.1632C6.77173 3.11423 6.77658 3.05512 6.77658 2.98587C6.77658 2.39475 6.52223 1.47852 5.51897 1.47852C4.62875 1.47852 4.0918 2.24697 4.0918 3.20753C4.0918 4.1681 4.64288 4.81833 5.58962 4.81833C6.07006 4.81833 6.40919 4.71488 6.60701 4.62622L6.5081 4.21243C6.29614 4.3011 6.05593 4.37499 5.66027 4.37499ZM5.46227 1.90708C6.09814 1.90708 6.25357 2.48342 6.23944 2.85287H4.61444C4.65683 2.45387 4.89705 1.90708 5.46227 1.90708Z"
    fill="currentColor"
  />
  <path
    d="M7.21478 2.5562C7.21478 2.18675 7.21478 1.86164 7.18652 1.56608H7.66696L7.68109 2.18675H7.70935C7.85065 1.75819 8.18978 1.49219 8.55718 1.49219C8.6137 1.49219 8.67022 1.49219 8.71261 1.50697V2.05375C8.65609 2.03897 8.59957 2.03897 8.52892 2.03897C8.13326 2.03897 7.86478 2.34931 7.78 2.77787C7.76587 2.85176 7.75174 2.9552 7.75174 3.04387V4.74334H7.20065V2.5562H7.21478Z"
    fill="currentColor"
  />
  <path
    fill-rule="evenodd"
    clip-rule="evenodd"
    d="M9.32057 1.01904C9.54666 1.01904 9.67383 0.856484 9.67383 0.66437C9.67383 0.457479 9.53253 0.294922 9.33471 0.294922C9.12275 0.294922 8.98145 0.457479 8.98145 0.66437C8.98145 0.856484 9.12275 1.01904 9.32057 1.01904ZM9.60289 1.56589H9.0518V4.75793H9.60289V1.56589Z"
    fill="currentColor"
  />
  <path
    d="M10.338 4.7585V2.0098H9.91406V1.56646H10.338V1.41868C10.338 0.975344 10.4369 0.561562 10.6912 0.295559C10.9032 0.0886677 11.1717 0 11.4401 0C11.638 0 11.8075 0.0443338 11.9206 0.0886677L11.8499 0.532006C11.7651 0.487672 11.6521 0.458116 11.4967 0.458116C11.0304 0.458116 10.9032 0.886677 10.9032 1.38913V1.56646H11.638V2.0098H10.9032V4.7585H10.338Z"
    fill="currentColor"
  />
  <path
    fill-rule="evenodd"
    clip-rule="evenodd"
    d="M12.429 1.01904C12.6551 1.01904 12.7964 0.856484 12.7822 0.66437C12.7822 0.457479 12.6551 0.294922 12.4431 0.294922C12.2311 0.294922 12.0898 0.457479 12.0898 0.66437C12.0898 0.856484 12.2311 1.01904 12.429 1.01904ZM12.7113 1.56589H12.1602V4.75793H12.7113V1.56589Z"
    fill="currentColor"
  />
  <path
    fill-rule="evenodd"
    clip-rule="evenodd"
    d="M14.7462 4.37499C14.1951 4.37499 13.7147 4.04988 13.7006 3.26665L15.8484 3.25187C15.8484 3.22738 15.8508 3.19783 15.8537 3.1632C15.8577 3.11423 15.8625 3.05512 15.8625 2.98587C15.8625 2.39475 15.6082 1.47852 14.6049 1.47852C13.7147 1.47852 13.1777 2.24697 13.1777 3.20753C13.1777 4.1681 13.7288 4.81833 14.6756 4.81833C15.156 4.81833 15.4951 4.71488 15.693 4.62622L15.594 4.21243C15.3821 4.3011 15.1419 4.37499 14.7462 4.37499ZM14.5482 1.90708C15.1841 1.90708 15.3254 2.48342 15.3254 2.85287H13.7004C13.7428 2.45387 13.983 1.90708 14.5482 1.90708Z"
    fill="currentColor"
  />
  <path
    fill-rule="evenodd"
    clip-rule="evenodd"
    d="M18.9432 3.93126V0.0742188H18.3921V1.9658H18.378C18.2367 1.71457 17.9258 1.47812 17.4595 1.47812C16.7106 1.47812 16.0889 2.12835 16.0889 3.19237C16.0889 4.16771 16.6541 4.81794 17.3889 4.81794C17.8976 4.81794 18.265 4.55194 18.4345 4.19727H18.4486L18.4769 4.75883H18.9715C18.9432 4.53716 18.9432 4.21204 18.9432 3.93126ZM18.3637 2.61592C18.3919 2.68981 18.3919 2.79325 18.3919 2.86714V3.41393C18.3919 3.50259 18.3778 3.59126 18.3637 3.66515C18.2506 4.10849 17.9115 4.35971 17.5441 4.35971C16.9365 4.35971 16.6397 3.82771 16.6397 3.17748C16.6397 2.46814 16.9789 1.93613 17.5582 1.93613C17.9821 1.93613 18.2789 2.24647 18.3637 2.61592Z"
    fill="currentColor"
  />
  <path
    fill-rule="evenodd"
    clip-rule="evenodd"
    d="M21.0204 3.93126C21.0204 4.21204 21.0063 4.53716 20.9922 4.75883H21.4868L21.515 4.22682H21.5291C21.7552 4.65538 22.1085 4.83272 22.5465 4.83272C23.2248 4.83272 23.9172 4.25638 23.9172 3.11848C23.9313 2.15791 23.3944 1.4929 22.6313 1.4929C22.1368 1.4929 21.7835 1.72935 21.5857 2.08402H21.5715V0.0742188H21.0204V3.93126ZM21.6002 3.67991C21.586 3.62079 21.5719 3.5469 21.5719 3.47301H21.586V2.89667C21.586 2.80801 21.6002 2.71934 21.6143 2.66023C21.7273 2.21689 22.0806 1.95089 22.4621 1.95089C23.0556 1.95089 23.3665 2.49767 23.3665 3.13312C23.3665 3.85724 23.0132 4.35969 22.4338 4.35969C22.0241 4.35969 21.7132 4.07891 21.6002 3.67991Z"
    fill="currentColor"
  />
  <path
    d="M24.5246 1.56641L25.1887 3.45798C25.2594 3.66487 25.33 3.9161 25.3866 4.10821H25.4007C25.4572 3.9161 25.5137 3.66487 25.5985 3.44321L26.2061 1.56641H26.7996L25.9659 3.84221C25.5703 4.93578 25.3018 5.49734 24.9203 5.83723C24.6518 6.08846 24.3833 6.1919 24.242 6.20668L24.1007 5.71901C24.242 5.67467 24.4257 5.58601 24.5811 5.43823C24.7366 5.32 24.9203 5.08356 25.0474 4.788C25.0757 4.72889 25.0898 4.68455 25.0898 4.655C25.0898 4.62544 25.0757 4.58111 25.0474 4.50722L23.917 1.56641L24.5246 1.56641Z"
    fill="currentColor"
  />
  <path
    d="M10.0364 7.36328L8.35488 11.8114L7.67662 8.02829C7.59184 7.59973 7.28097 7.36328 6.92771 7.36328H4.17227L4.12988 7.55539C4.6951 7.6884 5.33097 7.89529 5.72662 8.11696C5.96684 8.24996 6.03749 8.36818 6.10814 8.6933L7.39401 13.9099H9.11793L11.7462 7.36328H10.0364V7.36328Z"
    fill="currentColor"
  />
  <path d="M12.4381 7.36328L11.0957 13.9099H12.7207L14.049 7.36328H12.4381Z" fill="currentColor" />
  <path
    d="M16.183 9.182C16.183 8.94556 16.4091 8.69433 16.8754 8.63522C17.1015 8.60566 17.7515 8.57611 18.4722 8.93078L18.7548 7.54165C18.3591 7.39387 17.8645 7.24609 17.2428 7.24609C15.6461 7.24609 14.5156 8.13277 14.5015 9.41845C14.4874 10.3642 15.3069 10.8815 15.9145 11.1918C16.5504 11.5169 16.7624 11.709 16.7482 12.0046C16.7482 12.4479 16.2395 12.64 15.7874 12.64C14.9678 12.6548 14.5015 12.4036 14.12 12.2263L13.8232 13.6597C14.2048 13.8371 14.8972 13.9996 15.6178 13.9996C17.3135 13.9996 18.4298 13.1277 18.4298 11.7534C18.458 10.0539 16.1689 9.95046 16.183 9.182Z"
    fill="currentColor"
  />
  <path
    fill-rule="evenodd"
    clip-rule="evenodd"
    d="M20.7898 7.83728C20.9029 7.5565 21.1713 7.36439 21.4822 7.36439V7.34961H22.867L24.167 13.8962H22.6692L22.4713 12.9209H20.3942L20.055 13.8962H18.3594L20.7898 7.83728ZM21.7225 9.13771L20.8606 11.5909H22.203L21.7225 9.13771Z"
    fill="currentColor"
  />
</svg>
