<svg width="44" height="14" viewBox="0 0 44 14" fill="none" xmlns="http://www.w3.org/2000/svg">
<mask id="mask0_704_44510" style="mask-type:luminance" maskUnits="userSpaceOnUse" x="0" y="8" width="44" height="6">
<path fill-rule="evenodd" clip-rule="evenodd" d="M0.599609 8.10156H43.5996V13.9998H0.599609V8.10156Z" fill="white"/>
</mask>
<g mask="url(#mask0_704_44510)">
<path fill-rule="evenodd" clip-rule="evenodd" d="M41.8378 10.6888C41.6936 10.6888 41.5661 10.7113 41.454 10.7568C41.3421 10.8029 41.2459 10.8676 41.1648 10.9523C41.0837 11.0366 41.0176 11.1373 40.9664 11.254C40.9147 11.3705 40.8786 11.4987 40.8583 11.6382H42.7747C42.7307 11.3378 42.6286 11.1044 42.4663 10.9382C42.3044 10.772 42.0947 10.6888 41.8378 10.6888ZM41.8533 9.94024C42.1101 9.94024 42.346 9.98945 42.5605 10.0868C42.7751 10.1852 42.9592 10.323 43.112 10.5016C43.2651 10.6801 43.3842 10.8933 43.4707 11.1411C43.5567 11.3894 43.5996 11.6636 43.5996 11.964C43.5996 12.0177 43.5979 12.0714 43.5955 12.1248C43.5934 12.1785 43.589 12.2294 43.5842 12.2775H40.8544C40.8797 12.4522 40.9274 12.6009 40.997 12.7241C41.0665 12.8479 41.1498 12.9488 41.2479 13.0281C41.3452 13.1072 41.4544 13.1657 41.5754 13.2028C41.6961 13.2405 41.8223 13.2593 41.953 13.2593C42.1384 13.2593 42.3241 13.2241 42.5104 13.153C42.6969 13.0818 42.867 12.9817 43.0214 12.8532L43.4222 13.4525C43.1958 13.6539 42.9559 13.7948 42.7028 13.8749C42.45 13.9556 42.1834 13.9958 41.9031 13.9958C41.6258 13.9958 41.3711 13.9472 41.1396 13.851C40.9083 13.7543 40.7089 13.6176 40.5417 13.4407C40.3749 13.2635 40.245 13.0501 40.1525 12.8009C40.0598 12.5512 40.0137 12.2739 40.0137 11.9682C40.0137 11.6675 40.0585 11.3925 40.1485 11.1433C40.2385 10.8939 40.3647 10.6801 40.5267 10.5016C40.6886 10.3233 40.8819 10.1852 41.1067 10.087C41.332 9.98945 41.5808 9.94024 41.8533 9.94024ZM37.2998 10.7328C37.1249 10.7328 36.9688 10.7657 36.8311 10.8312C36.6937 10.897 36.5775 10.9859 36.4823 11.0967C36.3872 11.208 36.3139 11.3388 36.2624 11.4893C36.2112 11.6394 36.1853 11.7989 36.1853 11.9679C36.1853 12.1366 36.2112 12.2964 36.2624 12.4468C36.3139 12.597 36.3872 12.7278 36.4823 12.8389C36.5772 12.9502 36.6937 13.0386 36.8311 13.1049C36.9688 13.1704 37.1249 13.2028 37.2998 13.2028C37.4667 13.2028 37.6181 13.1716 37.7551 13.1083C37.8909 13.0456 38.0079 12.959 38.1054 12.849C38.2033 12.7393 38.279 12.6091 38.3329 12.4589C38.3868 12.3088 38.4141 12.1454 38.4141 11.9682C38.4141 11.7913 38.3868 11.6273 38.3329 11.4772C38.279 11.327 38.2033 11.1973 38.1054 11.0871C38.0079 10.9771 37.8909 10.8908 37.7551 10.8272C37.6181 10.7645 37.4667 10.7328 37.2998 10.7328ZM37.203 9.94024C37.4677 9.94024 37.6955 9.9917 37.8852 10.0952C38.0755 10.1984 38.2351 10.3359 38.3636 10.5075V8.10156H39.1698V13.8949H38.3636V13.4325C38.2351 13.6038 38.0755 13.7411 37.8852 13.8429C37.6955 13.9447 37.4677 13.9956 37.203 13.9956C36.9435 13.9956 36.7017 13.9455 36.478 13.8448C36.2543 13.7439 36.0594 13.6038 35.8921 13.4241C35.7247 13.2447 35.5937 13.0309 35.4985 12.7823C35.4037 12.5343 35.3562 12.2629 35.3562 11.9679C35.3562 11.6729 35.4037 11.4009 35.4985 11.1532C35.5937 10.9054 35.7247 10.6911 35.8921 10.5114C36.0594 10.3317 36.2543 10.1917 36.478 10.091C36.7017 9.99058 36.9435 9.94024 37.203 9.94024ZM32.7877 10.7328C32.6227 10.7328 32.4699 10.7631 32.3287 10.8233C32.1875 10.8835 32.0648 10.9681 31.9624 11.0767C31.8592 11.1853 31.7786 11.3155 31.7193 11.467C31.6603 11.6189 31.6306 11.7854 31.6306 11.9679C31.6306 12.1501 31.6603 12.3175 31.7193 12.4688C31.7786 12.6204 31.8592 12.7506 31.9624 12.8591C32.0648 12.9677 32.1872 13.0518 32.3287 13.1125C32.4699 13.1727 32.6227 13.2028 32.7877 13.2028C32.9521 13.2028 33.1049 13.1727 33.2462 13.1125C33.3871 13.0518 33.5103 12.9677 33.6143 12.8591C33.7186 12.7506 33.8 12.6204 33.8593 12.4688C33.9184 12.3175 33.948 12.1501 33.948 11.9679C33.948 11.7854 33.9184 11.6189 33.8593 11.467C33.8 11.3155 33.7186 11.1853 33.6143 11.0767C33.5103 10.9681 33.3871 10.8835 33.2462 10.8233C33.1049 10.7631 32.9521 10.7328 32.7877 10.7328ZM32.7883 9.94024C33.0735 9.94024 33.3376 9.9917 33.5802 10.0952C33.8236 10.1984 34.0336 10.3407 34.2106 10.5215C34.3883 10.7024 34.5271 10.9164 34.6273 11.163C34.7276 11.4097 34.7777 11.6785 34.7777 11.9679C34.7777 12.2576 34.7276 12.5259 34.6273 12.7722C34.5271 13.0194 34.3883 13.2331 34.2106 13.4143C34.0336 13.5951 33.8236 13.7374 33.5802 13.8406C33.3376 13.9438 33.0735 13.9956 32.7883 13.9956C32.5026 13.9956 32.2385 13.9438 31.9957 13.8406C31.7525 13.7374 31.5434 13.5951 31.3674 13.4143C31.1911 13.2331 31.0531 13.0194 30.9526 12.7722C30.8526 12.5259 30.8027 12.2576 30.8027 11.9679C30.8027 11.6785 30.8526 11.4097 30.9526 11.163C31.0534 10.9164 31.1911 10.7024 31.3674 10.5215C31.5434 10.3407 31.7528 10.1984 31.9957 10.0952C32.2388 9.9917 32.5026 9.94024 32.7883 9.94024ZM28.0262 8.15778C28.2653 8.15778 28.4968 8.1845 28.7203 8.23822C28.944 8.29221 29.1521 8.36955 29.3448 8.47164C29.5375 8.57372 29.7129 8.69774 29.8693 8.84398C30.0261 8.99022 30.1574 9.15418 30.2625 9.3367L29.5342 9.84347C29.369 9.59121 29.158 9.39322 28.8995 9.24811C28.6408 9.10356 28.3502 9.031 28.0262 9.031C27.7508 9.031 27.4966 9.0805 27.2627 9.17977C27.0287 9.27904 26.8271 9.41853 26.6573 9.59824C26.4878 9.77794 26.3546 9.99393 26.2584 10.2462C26.1619 10.4982 26.1137 10.7757 26.1137 11.0789C26.1137 11.3821 26.1619 11.6596 26.2584 11.9116C26.3546 12.1639 26.4878 12.3796 26.6573 12.5593C26.8271 12.7393 27.0287 12.8785 27.2627 12.9778C27.4966 13.077 27.7508 13.1265 28.0262 13.1265C28.3472 13.1265 28.6362 13.0557 28.8917 12.9134C29.1477 12.7711 29.3601 12.5731 29.5299 12.318L30.2399 12.8613C30.124 13.038 29.9887 13.1963 29.8329 13.3358C29.6776 13.4753 29.5051 13.5948 29.3159 13.6941C29.127 13.7931 28.9238 13.8693 28.7068 13.9213C28.4896 13.9739 28.2626 13.9998 28.0262 13.9998C27.6125 13.9998 27.2319 13.9269 26.8851 13.7804C26.5379 13.6344 26.2398 13.4311 25.9905 13.171C25.7409 12.9106 25.5471 12.6026 25.408 12.2457C25.2695 11.8889 25.2 11.5002 25.2 11.0789C25.2 10.6576 25.2695 10.269 25.408 9.91181C25.5471 9.55521 25.7409 9.2467 25.9905 8.98657C26.2398 8.72671 26.5379 8.52366 26.8851 8.37742C27.2319 8.2309 27.6125 8.15778 28.0262 8.15778ZM22.7861 10.6888C22.6422 10.6888 22.5145 10.7113 22.4026 10.7568C22.2907 10.8029 22.1943 10.8676 22.1131 10.9523C22.0323 11.0366 21.966 11.1373 21.9147 11.254C21.8633 11.3705 21.8272 11.4987 21.8069 11.6382H23.7236C23.6794 11.3378 23.5767 11.1044 23.4147 10.9382C23.2527 10.772 23.0435 10.6888 22.7861 10.6888ZM22.8015 9.94024C23.0586 9.94024 23.2945 9.98945 23.509 10.0868C23.7238 10.1852 23.9074 10.323 24.0605 10.5016C24.2133 10.6801 24.3327 10.8933 24.4192 11.1411C24.5047 11.3894 24.5481 11.6636 24.5481 11.964C24.5481 12.0177 24.5467 12.0714 24.5443 12.1248C24.5413 12.1785 24.5375 12.2294 24.5327 12.2775H21.8026C21.8282 12.4522 21.8757 12.6009 21.9452 12.7241C22.0148 12.8479 22.0983 12.9488 22.1959 13.0281C22.2934 13.1072 22.4026 13.1657 22.5236 13.2028C22.6444 13.2405 22.7705 13.2593 22.9012 13.2593C23.0867 13.2593 23.2724 13.2241 23.4586 13.153C23.6451 13.0818 23.8152 12.9817 23.9696 12.8532L24.3704 13.4525C24.1443 13.6539 23.9047 13.7948 23.6513 13.8749C23.3982 13.9556 23.1317 13.9958 22.8514 13.9958C22.5738 13.9958 22.3193 13.9472 22.0878 13.851C21.8565 13.7543 21.6571 13.6176 21.4903 13.4407C21.3229 13.2635 21.1932 13.0501 21.1008 12.8009C21.0081 12.5512 20.962 12.2739 20.962 11.9682C20.962 11.6675 21.007 11.3925 21.097 11.1433C21.1868 10.8939 21.3126 10.6801 21.4749 10.5016C21.6366 10.3233 21.8301 10.1852 22.0549 10.087C22.28 9.98945 22.5287 9.94024 22.8015 9.94024ZM20.0946 9.94024C20.2181 9.94024 20.3291 9.94895 20.428 9.96639C20.5272 9.98354 20.6229 10.0114 20.7156 10.0488L20.5229 10.8818C20.438 10.8357 20.3388 10.8011 20.2259 10.7766C20.1127 10.7527 20.007 10.7409 19.9097 10.7409C19.7811 10.7409 19.6631 10.7637 19.555 10.8092C19.4469 10.8548 19.3542 10.9217 19.2774 11.0106C19.2 11.0989 19.1397 11.2075 19.096 11.336C19.0521 11.4651 19.0305 11.611 19.0305 11.7747V13.8949H18.2246V10.0409H19.0227V10.4751C19.1461 10.2901 19.299 10.1548 19.4814 10.069C19.6642 9.98298 19.8685 9.94024 20.0946 9.94024ZM17.1524 12.2618C17.1524 12.5672 17.1036 12.8301 17.006 13.0498C16.9082 13.27 16.7796 13.4497 16.6203 13.5892C16.461 13.7289 16.2786 13.8313 16.0729 13.8968C15.8673 13.9629 15.6562 13.9955 15.4403 13.9955C15.2244 13.9955 15.0139 13.9629 14.808 13.8968C14.6024 13.8313 14.4194 13.7289 14.2584 13.5892C14.0978 13.4497 13.9695 13.27 13.873 13.0498C13.7765 12.8301 13.7283 12.5672 13.7283 12.2618V10.0409H14.5379V12.185C14.5379 12.37 14.5614 12.5281 14.6075 12.6577C14.6538 12.7879 14.7175 12.8931 14.7983 12.9738C14.8794 13.054 14.9751 13.1125 15.0856 13.1485C15.1961 13.1847 15.3145 13.2027 15.4403 13.2027C15.5662 13.2027 15.6845 13.1847 15.7953 13.1485C15.9058 13.1125 16.0015 13.054 16.0823 12.9738C16.1635 12.8931 16.2271 12.7879 16.2732 12.6577C16.3195 12.5281 16.3427 12.37 16.3427 12.185V10.0409H17.1524V12.2618ZM11.6388 9.94024C11.9164 9.94024 12.1746 9.9917 12.4137 10.0952C12.6527 10.1984 12.8546 10.352 13.0193 10.5556L12.5023 11.1307C12.3714 11.0022 12.235 10.9037 12.0937 10.8351C11.9522 10.7668 11.7929 10.7327 11.6156 10.7327C11.4612 10.7327 11.3172 10.7631 11.1838 10.8233C11.0499 10.8835 10.9342 10.9681 10.8367 11.0767C10.7388 11.1852 10.6623 11.3154 10.607 11.467C10.552 11.6189 10.5243 11.7854 10.5243 11.9679C10.5243 12.1501 10.552 12.3175 10.607 12.4688C10.6623 12.6203 10.7388 12.7506 10.8367 12.8591C10.9342 12.9677 11.0499 13.0518 11.1838 13.1125C11.3172 13.1727 11.4612 13.2028 11.6156 13.2028C11.7929 13.2028 11.9587 13.1648 12.1129 13.0883C12.2673 13.0121 12.4034 12.9159 12.5215 12.8006L13.0193 13.3799C12.8495 13.5836 12.6463 13.7374 12.4099 13.8406C12.1732 13.9438 11.9164 13.9956 11.6388 13.9956C11.3455 13.9956 11.0795 13.9438 10.8404 13.8406C10.6016 13.7374 10.3971 13.5951 10.2275 13.4143C10.0577 13.2331 9.92673 13.0194 9.83428 12.7722C9.74156 12.5259 9.6952 12.2576 9.6952 11.9679C9.6952 11.6785 9.74156 11.4097 9.83428 11.163C9.92673 10.9164 10.0577 10.7024 10.2275 10.5215C10.3971 10.3407 10.6014 10.1984 10.8404 10.0952C11.0795 9.9917 11.3455 9.94024 11.6388 9.94024ZM7.35536 10.6888C7.21143 10.6888 7.08368 10.7113 6.97182 10.7568C6.85997 10.8029 6.76348 10.8676 6.68262 10.9523C6.60176 11.0366 6.53545 11.1373 6.48397 11.254C6.43249 11.3705 6.39665 11.4987 6.37616 11.6382H8.29224C8.24858 11.3378 8.14589 11.1044 7.9839 10.9382C7.82191 10.772 7.61249 10.6888 7.35536 10.6888ZM7.37062 9.94024C7.62748 9.94024 7.86332 9.98945 8.07813 10.0868C8.29268 10.1852 8.47623 10.323 8.62932 10.5016C8.78214 10.6801 8.90181 10.8933 8.98806 11.1411C9.07377 11.3894 9.11716 11.6636 9.11716 11.964C9.11716 12.0177 9.11582 12.0714 9.11312 12.1248C9.11043 12.1785 9.10665 12.2294 9.10153 12.2775H6.37175C6.39735 12.4522 6.44506 12.6009 6.51433 12.7241C6.5836 12.8479 6.66742 12.9488 6.76499 13.0281C6.86283 13.1072 6.97199 13.1657 7.09301 13.2028C7.21349 13.2405 7.33936 13.2593 7.47062 13.2593C7.65578 13.2593 7.84122 13.2241 8.02773 13.153C8.21424 13.0818 8.38459 12.9817 8.53876 12.8532L8.93955 13.4525C8.71368 13.6539 8.4738 13.7948 8.22071 13.8749C7.96736 13.9556 7.70079 13.9958 7.42048 13.9958C7.14287 13.9958 6.88843 13.9472 6.65718 13.851C6.42592 13.7543 6.22647 13.6176 6.05937 13.4407C5.89226 13.2635 5.76235 13.0501 5.67017 12.8009C5.57745 12.5512 5.53109 12.2739 5.53109 11.9682C5.53109 11.6675 5.5761 11.3925 5.66612 11.1433C5.75615 10.8939 5.88202 10.6801 6.044 10.5016C6.20599 10.3233 6.39924 10.1852 6.6243 10.087C6.84935 9.98945 7.09786 9.94024 7.37062 9.94024ZM4.42853 9.50973C4.19728 9.35703 3.95551 9.23835 3.70377 9.15342C3.45176 9.06905 3.18843 9.02714 2.91324 9.02714C2.73347 9.02714 2.56878 9.04655 2.41974 9.08536C2.27069 9.12417 2.14266 9.18041 2.03593 9.25438C1.92946 9.32834 1.84645 9.41665 1.78742 9.51986C1.72839 9.62307 1.69875 9.73922 1.69875 9.86774C1.69875 9.98585 1.72435 10.0863 1.77583 10.1695C1.82731 10.2527 1.90116 10.323 1.99765 10.3807C2.09388 10.4384 2.21166 10.4859 2.35047 10.5236C2.48927 10.5612 2.64587 10.5933 2.82079 10.6203L3.19463 10.6723C3.41322 10.7047 3.62668 10.7542 3.83476 10.8217C4.04284 10.8883 4.22854 10.9822 4.39187 11.1032C4.55521 11.2233 4.68647 11.3754 4.78512 11.5576C4.8843 11.7399 4.9339 11.9612 4.9339 12.2213C4.9339 12.5085 4.87595 12.7619 4.76032 12.9818C4.64442 13.2017 4.48756 13.3868 4.28972 13.5367C4.09162 13.6871 3.86225 13.8013 3.60162 13.8792C3.34044 13.9568 3.06364 13.9956 2.77066 13.9956C2.58792 13.9956 2.39844 13.9796 2.20196 13.947C2.0052 13.9152 1.81114 13.8677 1.61951 13.8047C1.42814 13.7411 1.24486 13.6629 1.06994 13.5693C0.895282 13.4753 0.738417 13.3654 0.599609 13.2388L1.07398 12.5149C1.1667 12.6035 1.27774 12.6857 1.40766 12.7605C1.5373 12.8358 1.67665 12.9014 1.82569 12.9576C1.97501 13.0138 2.12972 13.0577 2.29036 13.0884C2.451 13.1193 2.61002 13.1348 2.76662 13.1348C2.94397 13.1348 3.10919 13.1162 3.26201 13.0785C3.4151 13.0408 3.54798 12.9857 3.66118 12.9135C3.77412 12.8409 3.8636 12.7531 3.92909 12.6499C3.99486 12.5467 4.02747 12.4306 4.02747 12.3021C4.02747 12.0819 3.92397 11.9142 3.71725 11.7989C3.50998 11.6836 3.20891 11.5976 2.81298 11.5413L2.39278 11.4812C2.19198 11.4516 1.99604 11.4035 1.80467 11.3363C1.61331 11.2697 1.44216 11.1749 1.29176 11.0528C1.14136 10.9308 1.02061 10.7781 0.929512 10.5942C0.837873 10.4108 0.792322 10.1875 0.792322 9.92455C0.792322 9.64276 0.848384 9.39274 0.960238 9.17395C1.07182 8.95571 1.22411 8.77179 1.41709 8.62274C1.6098 8.47369 1.8354 8.36063 2.09361 8.28301C2.35208 8.20511 2.62754 8.16602 2.92079 8.16602C3.3143 8.16602 3.66954 8.22058 3.98677 8.32913C4.30428 8.43769 4.59941 8.5859 4.87217 8.77348L4.42853 9.50973Z" fill="currentColor"/>
</g>
<mask id="mask1_704_44510" style="mask-type:luminance" maskUnits="userSpaceOnUse" x="0" y="0" width="44" height="7">
<path fill-rule="evenodd" clip-rule="evenodd" d="M0.780273 0H43.3582V6.11375H0.780273V0Z" fill="white"/>
</mask>
<g mask="url(#mask1_704_44510)">
<path fill-rule="evenodd" clip-rule="evenodd" d="M41.4181 2.72946C41.2367 2.72946 41.0747 2.76377 40.9322 2.83155C40.7896 2.89989 40.6691 2.99213 40.5702 3.10716C40.4718 3.22274 40.3955 3.35801 40.3424 3.51409C40.2893 3.66989 40.2624 3.83526 40.2624 4.01074C40.2624 4.18595 40.2893 4.35159 40.3424 4.50711C40.3955 4.66292 40.4718 4.79875 40.5702 4.91405C40.6691 5.02964 40.7896 5.12132 40.9322 5.18966C41.0747 5.25771 41.2367 5.29174 41.4181 5.29174C41.5914 5.29174 41.7488 5.25912 41.8903 5.19388C42.0313 5.12835 42.1529 5.03864 42.2542 4.92446C42.3555 4.81056 42.4342 4.67557 42.49 4.51977C42.5464 4.36397 42.5744 4.19411 42.5744 4.01074C42.5744 3.82682 42.5464 3.65724 42.49 3.50144C42.4342 3.34536 42.3555 3.21065 42.2542 3.09647C42.1529 2.98285 42.0313 2.89286 41.8903 2.82761C41.7488 2.76237 41.5914 2.72946 41.4181 2.72946ZM41.3187 1.9073C41.5934 1.9073 41.8292 1.96101 42.0268 2.06788C42.2241 2.17503 42.3893 2.31761 42.5227 2.49563V0H43.3585V6.00931H42.5227V5.52953C42.3893 5.70755 42.2241 5.84929 42.0268 5.95503C41.8292 6.06105 41.5934 6.11392 41.3187 6.11392C41.0495 6.11392 40.7988 6.06161 40.567 5.95756C40.3349 5.85294 40.1322 5.70755 39.9589 5.52109C39.7856 5.33492 39.6498 5.11303 39.5509 4.8557C39.4525 4.5981 39.4029 4.31659 39.4029 4.01061C39.4029 3.70435 39.4525 3.42256 39.5509 3.16552C39.6498 2.90819 39.7856 2.68602 39.9589 2.49985C40.1322 2.31339 40.3349 2.16828 40.567 2.06366C40.7988 1.95961 41.0495 1.9073 41.3187 1.9073ZM38.5744 1.90743C38.7027 1.90743 38.8181 1.91643 38.9202 1.93471C39.0232 1.95271 39.1223 1.98112 39.2183 2.01993L39.0183 2.88386C38.9307 2.83662 38.828 2.80034 38.7108 2.77559C38.5933 2.75056 38.4836 2.73819 38.3822 2.73819C38.2491 2.73819 38.1267 2.76153 38.0149 2.80906C37.9025 2.8563 37.8068 2.92577 37.7267 3.01773C37.6467 3.10941 37.5839 3.2219 37.5386 3.35576C37.4933 3.48907 37.4707 3.64093 37.4707 3.81051V6.00972H36.6351V2.01177H37.4629V2.46258C37.5909 2.2705 37.7494 2.13017 37.9386 2.04102C38.1281 1.95215 38.3399 1.90743 38.5744 1.90743ZM33.4631 2.72946C33.2819 2.72946 33.1199 2.76377 32.9774 2.83155C32.8345 2.89989 32.714 2.99213 32.6157 3.10716C32.517 3.22274 32.4405 3.35801 32.3874 3.51409C32.3343 3.66989 32.3073 3.83526 32.3073 4.01074C32.3073 4.18595 32.3343 4.35159 32.3874 4.50711C32.4407 4.66292 32.517 4.79875 32.6157 4.91405C32.714 5.02964 32.8345 5.12132 32.9774 5.18966C33.1199 5.25771 33.2819 5.29174 33.4631 5.29174C33.6364 5.29174 33.7938 5.25912 33.9353 5.19388C34.0765 5.12835 34.1978 5.03864 34.2991 4.92446C34.4005 4.81056 34.4792 4.67557 34.5352 4.51977C34.5916 4.36397 34.6191 4.19411 34.6191 4.01074C34.6191 3.82682 34.5916 3.65724 34.5352 3.50144C34.4792 3.34536 34.4005 3.21065 34.2991 3.09647C34.1978 2.98285 34.0768 2.89286 33.9353 2.82761C33.7938 2.76237 33.6364 2.72946 33.4631 2.72946ZM35.4031 6.00935H34.567V5.52958C34.4338 5.70759 34.2686 5.84933 34.0713 5.95508C33.8738 6.0611 33.6379 6.11397 33.363 6.11397C33.0938 6.11397 32.8434 6.06166 32.6113 5.95761C32.3795 5.85299 32.1768 5.70759 32.0032 5.52114C31.8299 5.33497 31.6941 5.11308 31.5957 4.85575C31.4968 4.59815 31.4475 4.31663 31.4475 4.01066C31.4475 3.7044 31.4968 3.42261 31.5957 3.16556C31.6941 2.90824 31.8299 2.68607 32.0032 2.49989C32.1768 2.31344 32.3795 2.16832 32.6113 2.06371C32.8434 1.95937 33.0938 1.90706 33.363 1.90706C33.6379 1.90706 33.8738 1.96106 34.0713 2.06793C34.2686 2.17507 34.4338 2.31766 34.567 2.49539V2.01168H35.4031V6.00935ZM29.5157 1.90743C29.8038 1.90743 30.0717 1.96115 30.3197 2.06802C30.5677 2.17517 30.7768 2.33462 30.9474 2.54611L30.4113 3.14287C30.2755 3.00901 30.1345 2.90692 29.9882 2.83577C29.841 2.76518 29.6758 2.72947 29.4917 2.72947C29.3321 2.72947 29.1828 2.76068 29.044 2.8234C28.9052 2.88583 28.7853 2.97329 28.6839 3.08635C28.5829 3.19912 28.5033 3.33383 28.4462 3.49104C28.3885 3.64824 28.3602 3.8212 28.3602 4.01075C28.3602 4.20002 28.3885 4.37297 28.4462 4.53018C28.5033 4.6871 28.5829 4.82209 28.6839 4.93515C28.7853 5.04764 28.9052 5.13538 29.044 5.19754C29.1828 5.26053 29.3321 5.29175 29.4917 5.29175C29.6758 5.29175 29.8475 5.25209 30.0076 5.17279C30.1677 5.09348 30.3092 4.99421 30.4316 4.87412L30.9474 5.47539C30.772 5.68715 30.5609 5.84605 30.3162 5.95292C30.0701 6.06035 29.8041 6.11406 29.516 6.11406C29.2122 6.11406 28.9359 6.06035 28.6882 5.95292C28.4403 5.84605 28.2282 5.69869 28.0521 5.51082C27.8764 5.32296 27.7403 5.10107 27.6444 4.84515C27.5484 4.58924 27.5002 4.3111 27.5002 4.01075C27.5002 3.71011 27.5484 3.43198 27.6444 3.17578C27.7403 2.92014 27.8764 2.69825 28.0521 2.51039C28.2282 2.32253 28.4403 2.17517 28.6882 2.06802C28.9357 1.96115 29.2119 1.90743 29.5157 1.90743ZM26.656 1.90743C26.7843 1.90743 26.8997 1.91643 27.0024 1.93471C27.1051 1.95271 27.2043 1.98112 27.3002 2.01993L27.1002 2.88386C27.0124 2.83662 26.9097 2.80034 26.7922 2.77559C26.6749 2.75056 26.5655 2.73819 26.4647 2.73819C26.331 2.73819 26.2084 2.76153 26.0962 2.80906C25.9841 2.8563 25.8884 2.92577 25.8084 3.01773C25.7283 3.10941 25.6658 3.2219 25.6205 3.35576C25.5752 3.48907 25.5526 3.64093 25.5526 3.81051V6.00972H24.7168V2.01177H25.5445V2.46258C25.6725 2.2705 25.8313 2.13017 26.0205 2.04102C26.2094 1.95215 26.4213 1.90743 26.656 1.90743ZM21.9334 2.68348C21.7841 2.68348 21.6515 2.7071 21.5354 2.75435C21.4195 2.80188 21.3195 2.86909 21.2356 2.95683C21.1515 3.04458 21.0828 3.14863 21.0294 3.26984C20.9761 3.39077 20.9389 3.52379 20.9173 3.66834H22.9054C22.8601 3.35674 22.7536 3.1146 22.5854 2.94221C22.4172 2.76982 22.2 2.68348 21.9334 2.68348ZM21.9492 1.90743C22.2158 1.90743 22.4608 1.95806 22.6831 2.05986C22.9058 2.1611 23.0963 2.30453 23.2551 2.48958C23.4138 2.67463 23.5376 2.89596 23.627 3.153C23.7163 3.4106 23.7613 3.69493 23.7613 4.00681C23.7613 4.06221 23.7596 4.1179 23.7572 4.17358C23.7545 4.22926 23.7499 4.28213 23.7454 4.33191H20.9134C20.9401 4.51274 20.9894 4.66742 21.0614 4.79538C21.1334 4.92334 21.2201 5.02823 21.3212 5.11035C21.4226 5.19219 21.536 5.25294 21.6614 5.29175C21.7867 5.33112 21.9171 5.35024 22.0533 5.35024C22.2452 5.35024 22.4379 5.3134 22.6311 5.23972C22.8247 5.16604 23.0012 5.06254 23.161 4.92896L23.5772 5.55048C23.3427 5.75915 23.0939 5.90539 22.8311 5.98863C22.5683 6.07216 22.2918 6.11406 22.0012 6.11406C21.7134 6.11406 21.4492 6.06372 21.2094 5.9636C20.9695 5.86377 20.7628 5.72175 20.5895 5.5381C20.4161 5.35418 20.2814 5.13341 20.1854 4.8744C20.0897 4.61595 20.0415 4.32797 20.0415 4.01103C20.0415 3.69915 20.0881 3.41398 20.1814 3.15525C20.2749 2.8968 20.4056 2.67491 20.5735 2.48986C20.7415 2.30453 20.942 2.16138 21.1754 2.05986C21.4085 1.95806 21.6668 1.90743 21.9492 1.90743ZM19.3777 2.80448H17.9099V4.545C17.9099 4.67803 17.926 4.7922 17.9578 4.88698C17.9899 4.98147 18.0333 5.05881 18.0878 5.11871C18.1425 5.17833 18.2066 5.2222 18.2797 5.25005C18.353 5.27789 18.4322 5.29167 18.5179 5.29167C18.6486 5.29167 18.781 5.26551 18.9157 5.21236C19.0505 5.15949 19.175 5.09565 19.2899 5.02056L19.6216 5.71745C19.4669 5.82572 19.2931 5.91909 19.0998 5.99699C18.9063 6.07489 18.6885 6.11398 18.4457 6.11398C18.0112 6.11398 17.6729 5.98827 17.432 5.73629C17.1905 5.48431 17.07 5.09312 17.07 4.5616V2.80448H16.3062V2.01169H17.07V0.801562H17.9099V2.01169H19.3777V2.80448ZM15.4098 3.0131C15.3513 2.9771 15.2794 2.93885 15.1939 2.89836C15.1088 2.85814 15.0139 2.82158 14.9098 2.78783C14.8058 2.75465 14.6958 2.72681 14.5799 2.70459C14.464 2.68237 14.346 2.67112 14.226 2.67112C13.9967 2.67112 13.8188 2.715 13.6921 2.80246C13.5654 2.88992 13.5021 3.00494 13.5021 3.14696C13.5021 3.21643 13.5188 3.27464 13.552 3.32189C13.5856 3.36942 13.6301 3.40851 13.6859 3.43888C13.7422 3.46981 13.8085 3.494 13.8859 3.512C13.9633 3.53028 14.046 3.54603 14.1341 3.55981L14.5298 3.62252C14.9484 3.68636 15.2751 3.81376 15.5098 4.00443C15.7446 4.19482 15.8618 4.46143 15.8618 4.8034C15.8618 4.99548 15.8225 5.17153 15.7438 5.33127C15.6651 5.49129 15.5519 5.62937 15.4039 5.7444C15.2559 5.85998 15.0732 5.94969 14.8559 6.01381C14.6387 6.07765 14.3923 6.10943 14.118 6.10943C14.0193 6.10943 13.9045 6.10353 13.774 6.09087C13.6433 6.07822 13.5048 6.05319 13.3584 6.01606C13.2115 5.97838 13.0622 5.92607 12.9102 5.85942C12.7585 5.79277 12.6127 5.70474 12.4744 5.59647L12.8622 4.94121C12.9315 4.99689 13.0067 5.04892 13.0881 5.09757C13.1695 5.14622 13.2614 5.18953 13.3641 5.22693C13.4668 5.26462 13.5803 5.29471 13.704 5.31665C13.8282 5.33886 13.9689 5.35011 14.1261 5.35011C14.4142 5.35011 14.6314 5.30624 14.778 5.21878C14.9247 5.13132 14.998 5.01236 14.998 4.8619C14.998 4.748 14.9446 4.65407 14.8379 4.58011C14.7311 4.50671 14.5632 4.45299 14.3341 4.41981L13.9341 4.36525C13.5075 4.30422 13.1843 4.17429 12.9644 3.97518C12.7442 3.77635 12.6342 3.51565 12.6342 3.19252C12.6342 2.9951 12.6709 2.81708 12.7442 2.65875C12.8175 2.50014 12.9229 2.36571 13.0603 2.25575C13.1975 2.14607 13.3636 2.06114 13.5582 2.00152C13.7528 1.94133 13.973 1.91181 14.2182 1.91181C14.5196 1.91181 14.8031 1.94865 15.0702 2.02233C15.3368 2.09573 15.5699 2.1995 15.7699 2.33309L15.4098 3.0131ZM9.63043 2.72946C9.44931 2.72946 9.28732 2.76377 9.14474 2.83155C9.00216 2.89989 8.88142 2.99213 8.78277 3.10716C8.68412 3.22274 8.60811 3.35801 8.55475 3.51409C8.50138 3.66989 8.4747 3.83526 8.4747 4.01074C8.4747 4.18595 8.50138 4.35159 8.55475 4.50711C8.60811 4.66292 8.68412 4.79875 8.78277 4.91405C8.88142 5.02964 9.00189 5.12132 9.14474 5.18966C9.28732 5.25771 9.44931 5.29174 9.63043 5.29174C9.80401 5.29174 9.96115 5.25912 10.1024 5.19388C10.2439 5.12835 10.3652 5.03864 10.4665 4.92446C10.5679 4.81056 10.6466 4.67557 10.7026 4.51977C10.7584 4.36397 10.7864 4.19411 10.7864 4.01074C10.7864 3.82682 10.7584 3.65724 10.7026 3.50144C10.6466 3.34536 10.5679 3.21065 10.4665 3.09647C10.3652 2.98285 10.2439 2.89286 10.1024 2.82761C9.96142 2.76237 9.80401 2.72946 9.63043 2.72946ZM11.5702 6.00935H10.7344V5.52958C10.601 5.70759 10.4357 5.84933 10.2384 5.95508C10.0411 6.0611 9.80504 6.11397 9.53066 6.11397C9.26113 6.11397 9.01074 6.06166 8.77867 5.95761C8.54661 5.85299 8.34392 5.70759 8.17062 5.52114C7.99731 5.33497 7.86147 5.11308 7.76282 4.85575C7.66417 4.59815 7.61485 4.31663 7.61485 4.01066C7.61485 3.7044 7.66417 3.42261 7.76282 3.16556C7.86147 2.90824 7.99758 2.68607 8.17062 2.49989C8.34392 2.31344 8.54661 2.16832 8.77867 2.06371C9.01074 1.95937 9.26113 1.90706 9.53066 1.90706C9.80504 1.90706 10.0411 1.96106 10.2384 2.06793C10.4357 2.17507 10.601 2.31766 10.7344 2.49539V2.01168H11.5702V6.00935ZM6.81151 6.00945H5.90751V1.2024L4.27201 5.43771H3.32004L1.68427 1.24795V6.00945H0.780273V0.167472H2.16835L3.79603 4.34035L5.42371 0.167472H6.81151V6.00945Z" fill="currentColor"/>
</g>
</svg>