<svg width="25" height="14" viewBox="0 0 25 14" fill="currentColor" xmlns="http://www.w3.org/2000/svg">
  <path fill-rule="evenodd" clip-rule="evenodd"
    d="M23.3723 0.00316864L17.7114 0.00190179H17.71C17.7054 0.00190179 17.7014 0.00253522 17.6974 0.00253522C16.9196 0.025353 15.9509 0.619884 15.7741 1.35322L15.2708 3.47465H14.8041L15.3074 1.35322C15.4849 0.619884 16.4522 0.025353 17.23 0.00253522C17.234 0.00253522 17.2387 0.00190179 17.2433 0.00190179H14.9803L10.9555 0C10.9455 0 10.9349 -5.05608e-07 10.9249 0.00126715C10.1451 0.016479 9.16383 0.615448 8.98765 1.35386L8.48438 3.47528H7.93924L8.44183 1.35386C8.61801 0.614814 9.59995 0.016479 10.3798 0.00126715L5.1849 0C4.40042 0 3.39522 0.60594 3.21572 1.35386L0.537839 12.6474C0.521883 12.7159 0.51191 12.7843 0.506592 12.8496V13.0588C0.559112 13.5988 0.991243 13.9918 1.61285 14H6.83963C6.06778 13.988 5.58712 13.3871 5.76396 12.6461L6.38556 10.024H6.93071L6.3091 12.6461C6.1316 13.3865 6.61293 13.988 7.38411 14H13.7065C12.934 13.988 12.4547 13.3871 12.6308 12.6461L12.8389 11.767H13.3056L13.0975 12.6461C12.9214 13.3865 13.4014 13.988 14.1732 14H20.12C20.8805 13.9632 21.6185 13.3769 21.7927 12.6512L24.4699 1.35766C24.6487 0.610377 24.1568 0.00316864 23.3723 0.00316864ZM9.6385 4.91407H9.07474L8.63397 6.86943H9.1964L9.6385 4.91407ZM11.1117 9.94096L10.9482 10.5089C10.9076 10.6039 10.9608 10.6464 11.1084 10.6375H11.6815L11.5751 11.0083H10.4748C10.2654 11.0083 10.1943 10.8936 10.2594 10.6661L10.4682 9.9397H10.0188L10.1325 9.54039H10.5825L10.6922 9.15502H10.2628L10.3758 8.75634H12.1734L12.0591 9.15502H11.3364L11.2268 9.54102H11.9301L11.8158 9.94096H11.1117ZM9.71429 4.67639H9.14587L9.25158 4.20101H9.82066L9.71429 4.67639ZM10.7674 8.14279L11.0226 7.77897H11.7067L11.5638 8.0192H12.3842L12.2798 8.38555H11.3039C11.1915 8.54781 11.0532 8.62323 10.8864 8.61373H10.3778L10.4888 8.22963H10.5872C10.6783 8.22963 10.7388 8.19984 10.7674 8.14279ZM9.9144 6.17539C9.91573 6.40547 9.98953 6.58674 10.1378 6.72112C10.2847 6.85295 10.4848 6.92014 10.7394 6.92014C11.0466 6.92014 11.3099 6.82887 11.5292 6.64442C11.7486 6.46188 11.8909 6.21215 11.9561 5.89967C11.9654 5.85214 11.9733 5.80397 11.98 5.75326C11.986 5.70382 11.9886 5.65755 11.9886 5.61762C11.9886 5.38437 11.9148 5.20119 11.7679 5.06556C11.621 4.93055 11.4195 4.86273 11.1663 4.86273C10.8571 4.86273 10.5925 4.95717 10.3738 5.14352C10.1544 5.32986 10.0128 5.58212 9.94498 5.89967C9.93568 5.94467 9.92836 5.99285 9.92238 6.04229C9.91706 6.09109 9.9144 6.13546 9.9144 6.17539ZM7.23719 5.11499C7.40273 4.94703 7.60284 4.86337 7.83885 4.86337C8.05292 4.86337 8.20715 4.92294 8.30355 5.04274C8.39862 5.1619 8.42455 5.32669 8.37934 5.53776L8.10012 6.8707H7.57691L7.8302 5.66262C7.85613 5.53776 7.84882 5.44459 7.80827 5.38501C7.76904 5.32479 7.69325 5.295 7.58356 5.295C7.44926 5.295 7.33625 5.33493 7.24384 5.41416C7.15143 5.49402 7.09026 5.60494 7.06035 5.74629L6.827 6.87006H6.30379L6.71398 4.91344H7.22256L7.16472 5.19549L7.23719 5.11499ZM18.5703 5.22972C18.321 5.04401 18.0936 4.92865 17.6542 5.12323C17.0559 5.38754 16.5552 7.41706 18.2007 6.749L18.2957 6.85485L18.9453 6.8707L19.3707 5.02626L18.809 5.07316L18.5703 5.22972ZM13.0749 5.41416C12.9825 5.49402 12.9214 5.60494 12.8921 5.74629L12.6568 6.8707H12.1342L12.5444 4.91407H13.0537L12.9958 5.19613L13.0676 5.11563C13.2325 4.94766 13.4339 4.864 13.6693 4.864C13.8827 4.864 14.0369 4.92358 14.134 5.04274C14.2284 5.1619 14.2557 5.32669 14.2098 5.53776L13.9306 6.8707H13.4073L13.6606 5.66262C13.6866 5.53776 13.6806 5.44459 13.64 5.38501C13.5981 5.32479 13.5244 5.295 13.4153 5.295C13.281 5.295 13.168 5.33493 13.0749 5.41416ZM13.8853 9.86744C13.9645 9.86744 14.0037 9.84399 14.0037 9.79645L14.0529 9.64116H14.5395L14.4744 9.86871C14.4192 10.0589 14.2729 10.1571 14.0363 10.1679H13.7238L13.7225 10.5805C13.7171 10.6464 13.7796 10.6806 13.9093 10.6806H14.2018L14.1061 11.0083H13.402C13.2059 11.0159 13.1082 10.9272 13.1108 10.7364L13.1547 9.62595H13.7417L13.7298 9.86744H13.8853ZM14.3793 6.87006H15.0647L15.3101 5.7241H16.1025C16.421 5.7241 16.6988 5.63156 16.9335 5.44839C17.1669 5.26458 17.3171 5.02245 17.3829 4.72012C17.3956 4.66561 17.4042 4.61237 17.4115 4.55976C17.4162 4.50715 17.4188 4.45772 17.4188 4.41461V4.40764C17.4188 4.17946 17.3437 4.00453 17.1935 3.88283C17.0426 3.76177 16.8232 3.70029 16.5386 3.70029H15.0614L14.3793 6.87006ZM18.569 7.76186L18.5962 7.98941C18.5929 8.04645 18.6281 8.07497 18.7046 8.0737H18.8189L18.7026 8.45907H18.2273C18.0458 8.46858 17.9534 8.4033 17.944 8.25942L17.9221 7.76186H18.569ZM14.5661 9.26911L15.0016 7.76757H13.8641C13.5563 7.76757 13.2172 8.01032 13.2172 8.01032L13.2445 7.77707H12.6428L11.7892 10.7795C11.7486 10.9228 11.851 10.9931 12.099 10.9931H12.7439L12.8383 10.6667H12.5843C12.5185 10.6667 12.4946 10.6375 12.5118 10.5805L12.8137 9.52581H14.1027C14.3753 9.52581 14.5302 9.44087 14.5661 9.26911ZM20.469 4.91407L20.5029 6.23497L21.0959 4.9128H21.6969L20.489 7.24783C20.2736 7.6877 20.0661 7.94377 19.9451 8.06293L19.9225 8.08519C19.7936 8.21242 19.5489 8.45408 19.0024 8.43499L19.053 8.09969C19.4808 7.97394 19.7364 7.46129 19.8946 7.14414C19.9166 7.10003 19.9367 7.0597 19.9551 7.02472L19.7756 4.91914L20.1519 4.91407H20.469ZM16.9914 10.8252L17.1177 10.3973H16.9834L17.6249 8.24547H17.7586L17.8935 7.78975H17.0439C16.7913 7.78975 16.4396 7.95708 16.4396 7.95708L16.4695 7.78975H15.7821L15.6464 8.24547H15.7787L15.1365 10.3973H15.0049L14.8779 10.8252H16.1916L16.1358 11.0102H16.8012L16.8571 10.8252H16.9914ZM18.3343 9.00163H17.6103L17.7353 8.58711H19.8281L19.7051 9.00036H19.039L18.924 9.38383H19.5901L19.4658 9.79645H18.7239L18.5563 10.0379H18.92L19.0031 10.5228C19.0137 10.571 19.0589 10.5944 19.1354 10.5944H19.2484L19.1288 10.9938H18.7299C18.5231 11.0045 18.4161 10.938 18.4074 10.7954L18.3104 10.353L17.9806 10.8239C17.9022 10.957 17.7818 11.0191 17.6196 11.009H17.0106L17.1297 10.6103H17.3198C17.3976 10.6103 17.4634 10.5761 17.5212 10.5101L18.0378 9.79772H17.3716L17.496 9.38573H18.2186L18.3343 9.00163ZM5.34047 5.75072L5.81249 3.5843L6.52916 3.58303L6.05249 5.77481C5.97337 6.14623 5.78855 6.43146 5.50268 6.63428C5.22014 6.8333 4.85449 6.93345 4.40707 6.93345C3.98557 6.93345 3.6771 6.83204 3.48031 6.62731C3.34403 6.48216 3.27555 6.29708 3.27555 6.07398C3.27555 5.98144 3.28685 5.88193 3.31012 5.77544L3.78679 3.58366H4.50679L4.0361 5.75009C4.02147 5.81094 4.01616 5.86671 4.01682 5.91679C4.01616 6.02771 4.04474 6.11834 4.10325 6.18933C4.18834 6.29518 4.32662 6.34779 4.52009 6.34779C4.74147 6.34779 4.92363 6.29645 5.06524 6.19187C5.20684 6.08856 5.29925 5.94214 5.34047 5.75072Z" />
  <path fill-rule="evenodd" clip-rule="evenodd"
    d="M10.554 6.39089C10.4888 6.32561 10.4562 6.23307 10.4562 6.11327C10.4562 6.08539 10.4569 6.05496 10.4602 6.02264C10.4642 5.99158 10.4695 5.95862 10.4755 5.9263C10.5207 5.71523 10.5919 5.55741 10.6922 5.45219C10.792 5.34761 10.9189 5.295 11.0752 5.295C11.1935 5.295 11.2846 5.32859 11.3491 5.39515C11.4142 5.4617 11.4461 5.5555 11.4461 5.6753C11.4461 5.70382 11.4441 5.73488 11.4415 5.76784C11.4382 5.80207 11.4328 5.83566 11.4262 5.86798C11.3823 6.07461 11.3118 6.23053 11.2121 6.33321C11.1124 6.43653 10.9854 6.4885 10.8285 6.4885C10.7089 6.4885 10.6178 6.45618 10.554 6.39089ZM18.4407 6.08095C18.337 6.37441 18.1036 6.56773 17.9214 6.51259C17.7393 6.45934 17.6748 6.17666 17.7812 5.88256C17.8842 5.58846 18.1189 5.39641 18.2991 5.45092C18.4812 5.5048 18.5464 5.78749 18.4407 6.08095ZM16.0866 5.17331H15.4297L15.6312 4.24411H16.1883C16.3718 4.24411 16.5027 4.26883 16.5872 4.32081C16.6703 4.37151 16.7121 4.45328 16.7121 4.56547C16.7121 4.58327 16.7099 4.60194 16.7076 4.62076L16.7062 4.63265L16.7038 4.64712C16.7005 4.66726 16.697 4.68895 16.6922 4.71188C16.6563 4.86907 16.5912 4.98443 16.4928 5.06049C16.3944 5.13528 16.2581 5.17331 16.0866 5.17331ZM13.0078 8.84191H14.025L13.9638 9.05487C13.9585 9.12269 13.9159 9.14995 13.8408 9.14044H12.9234L13.0078 8.84191ZM13.1933 8.2011H14.2091L14.1273 8.48569C14.1273 8.48569 13.8056 8.48189 13.5237 8.48569C13.2405 8.4895 13.0716 8.60612 13.0716 8.60612L13.1933 8.2011ZM15.8798 9.95554H16.393L16.2607 10.3973H15.7475L15.8798 9.95554ZM16.1331 9.10114H16.6477C16.6477 9.10114 16.5812 9.3065 16.5167 9.54292C16.2893 9.5556 15.9569 9.71152 15.9569 9.71152L16.1331 9.10114ZM16.3884 8.24611H16.9023C16.9023 8.24611 16.8272 8.48443 16.7706 8.68789C16.5127 8.71894 16.2135 8.82859 16.2135 8.82859L16.3884 8.24611Z" />
</svg>
