<svg width="38" height="14" viewBox="0 0 38 14" fill="currentColor" xmlns="http://www.w3.org/2000/svg">
  <path
    d="M13.8952 4.38806C18.5433 4.38806 22.4137 6.0597 23.1729 8.25373C23.2655 7.99254 23.3211 7.73134 23.3211 7.45274C23.3211 4.87562 19.0989 2.76866 13.8766 2.76866C8.67294 2.76866 4.4322 4.85821 4.4322 7.45274C4.4322 7.73134 4.48776 7.99254 4.58035 8.25373C5.37665 6.0597 9.24702 4.38806 13.8952 4.38806ZM13.8952 1.6194C18.5433 1.6194 22.4137 3.29104 23.1729 5.48507C23.2655 5.22388 23.3211 4.96269 23.3211 4.68408C23.3396 2.08955 19.1174 0 13.8952 0C8.69146 0 4.45072 2.08955 4.45072 4.68408C4.45072 4.96269 4.50628 5.22388 4.59887 5.48507C5.37665 3.29104 9.24702 1.6194 13.8952 1.6194ZM17.7655 12.8159L15.8396 10.4826H14.9137V13.9478H15.8026V11.6841L17.71 13.9478H18.6544V10.4826H17.7655V12.8159V12.8159ZM3.26553 13.2338C3.08035 13.3557 2.85813 13.408 2.61739 13.408C2.28405 13.408 1.98776 13.3209 1.78405 13.1294C1.56183 12.9378 1.46924 12.6244 1.46924 12.1891C1.46924 11.7711 1.58035 11.4751 1.80257 11.301C2.02479 11.1095 2.30257 11.0224 2.65442 11.0224C2.91368 11.0224 3.11739 11.0746 3.30257 11.1791C3.46924 11.2836 3.59887 11.4229 3.65442 11.597L4.59887 11.4403C4.48776 11.1617 4.33961 10.9527 4.11739 10.796C3.76553 10.5522 3.28405 10.4303 2.70998 10.4303C2.04331 10.4303 1.52479 10.5871 1.11739 10.9005C0.672942 11.2313 0.469238 11.6667 0.469238 12.2587C0.469238 12.7985 0.672942 13.2338 1.08035 13.5473C1.48776 13.8607 1.98776 14.0174 2.61739 14.0174C3.11739 14.0174 3.54331 13.9303 3.87665 13.7388C4.20998 13.5473 4.4322 13.2687 4.58035 12.8856L3.65442 12.6766C3.56183 12.9378 3.4322 13.1119 3.26553 13.2338ZM23.7285 10.4826V11.0746H25.1359V13.9478H26.0803V11.0746H27.4692V10.4826H23.7285ZM20.6174 12.4328H22.9878V11.8408H20.6174V11.0746H23.1544V10.4826H19.6729V13.9478H23.247V13.3557H20.6174V12.4328ZM13.2655 12.7114C13.1359 12.607 12.9692 12.5025 12.7655 12.4154C13.1729 12.3632 13.4878 12.2587 13.6915 12.102C13.8952 11.9279 14.0063 11.7189 14.0063 11.4577C14.0063 11.2488 13.9322 11.0746 13.8026 10.9179C13.6729 10.7612 13.4878 10.6393 13.247 10.5871C13.0248 10.5174 12.6544 10.5 12.1544 10.5H10.1544V13.9652H11.0989V12.5199H11.2841C11.5063 12.5199 11.6544 12.5373 11.7655 12.5547C11.8581 12.5721 11.9692 12.6244 12.0433 12.694C12.1359 12.7637 12.3026 12.9378 12.5433 13.199L13.2285 13.9478H14.3581L13.7841 13.2687C13.5803 13.0075 13.4137 12.8159 13.2655 12.7114ZM11.8026 11.9627H11.0989V11.0746H11.8396C12.2285 11.0746 12.4507 11.0746 12.5248 11.092C12.6729 11.1095 12.8026 11.1617 12.8766 11.2313C12.9692 11.301 13.0063 11.4055 13.0063 11.5099C13.0063 11.6144 12.9692 11.7015 12.9137 11.7711C12.8581 11.8408 12.7655 11.893 12.6544 11.9104C12.5433 11.9453 12.2655 11.9627 11.8026 11.9627ZM6.74702 10.4826L4.91368 13.9478H5.9322L6.32109 13.1642H8.20998L8.61739 13.9478H9.65442L7.76553 10.4826H6.74702ZM6.59887 12.5721L7.2285 11.2836L7.87665 12.5721H6.59887Z" />
</svg>
