<svg width="38" height="14" viewBox="0 0 38 14" fill="currentColor" xmlns="http://www.w3.org/2000/svg">
  <path fill-rule="evenodd" clip-rule="evenodd"
    d="M3.24892 8.91419C4.71153 8.91419 5.41507 8.11764 5.41507 6.94997V4.13488H4.37828V6.92281C4.37828 7.52928 3.86914 8.02712 3.24892 8.02712C2.62869 8.02712 2.11955 7.52928 2.11955 6.92281V4.13488H1.08276V6.95902C1.08276 8.11764 1.7863 8.91419 3.24892 8.91419ZM11.7376 8.83273V7.95471H9.41412L11.6821 4.94049V4.13488H8.07185V5.0129H10.3398L8.07185 8.01807V8.82368L11.7376 8.83273ZM16.6161 8.91419C17.4585 8.9323 18.2361 8.48876 18.6249 7.75557L17.7455 7.34825C17.5233 7.76462 17.0882 8.02712 16.6161 8.02712C15.7459 7.98187 15.0702 7.25773 15.1165 6.40687C15.1535 5.61031 15.8015 4.97669 16.6161 4.94049C17.0882 4.94954 17.5233 5.21204 17.7455 5.61937L18.6249 5.19394C18.2361 4.4698 17.4585 4.02626 16.6161 4.04437C15.2461 4.00816 14.0982 5.05816 14.0612 6.39781C14.0241 7.73747 15.098 8.85988 16.468 8.89609C16.5235 8.91419 16.5698 8.91419 16.6161 8.91419ZM25.5492 8.83273L23.6978 4.13488H22.4203L20.5596 8.83273H21.726L22.0315 8.03618H24.0866L24.3828 8.83273H25.5492ZM23.8089 7.15816H22.3092L23.059 5.13962L23.8089 7.15816ZM32.4549 10.0095L30.6961 7.04049C31.3441 6.88661 31.7884 6.29825 31.7514 5.64652C31.7792 4.84092 31.1404 4.16204 30.3166 4.12583C30.261 4.12583 30.1962 4.12583 30.1407 4.12583H27.8912V8.82368H28.9095V7.16721H29.6593L31.2886 10.0095H32.4549ZM29.9833 6.28014H28.9095V5.0129H29.9833C30.3443 4.97669 30.6591 5.23014 30.6961 5.58316C30.7331 5.93618 30.4739 6.24393 30.1129 6.28014C30.0666 6.28919 30.0203 6.28919 29.9833 6.28014ZM36.2966 8.83273C37.8055 8.83273 38.8423 7.9004 38.8423 6.48833C38.8423 5.07626 37.7963 4.13488 36.2966 4.13488H34.3989V8.83273H36.2966ZM36.2966 7.95471H35.4265V5.0129H36.2966C37.0742 4.95859 37.7407 5.52885 37.8055 6.28014C37.8148 6.3435 37.8148 6.41592 37.8055 6.47928C37.8426 7.25773 37.2223 7.90945 36.4262 7.94566C36.3799 7.95471 36.3337 7.95471 36.2966 7.95471Z" />
  <path fill-rule="evenodd" clip-rule="evenodd"
    d="M40.0827 4.04426V4.05331C40.0827 4.53305 39.6847 4.93133 39.1848 4.93133C38.6942 4.93133 38.2869 4.5421 38.2869 4.05331C38.2869 3.57357 38.6849 3.17529 39.1848 3.17529H40.0827V4.04426Z" />
</svg>
