<svg width="56" height="14" viewBox="0 0 56 14" fill="none" xmlns="http://www.w3.org/2000/svg">
  <path
    fill-rule="evenodd"
    clip-rule="evenodd"
    d="M0 7C0 3.13401 3.14751 0 7.03015 0C10.9128 0 14.0603 3.13401 14.0603 7C14.0603 10.866 10.9128 14 7.03015 14C3.14751 14 0 10.866 0 7ZM7.03015 1.27273C3.85344 1.27273 1.27821 3.83691 1.27821 7C1.27821 10.1631 3.85344 12.7273 7.03015 12.7273C10.2069 12.7273 12.7821 10.1631 12.7821 7C12.7821 3.83691 10.2069 1.27273 7.03015 1.27273Z"
    fill="currentColor"
  />
  <path
    fill-rule="evenodd"
    clip-rule="evenodd"
    d="M5.43549 9.13284V6.4216L5.43602 6.42107H8.89535L8.89588 6.4216V9.13284H5.43549ZM6.04491 5.42101C6.04491 5.1291 6.15919 4.85313 6.36692 4.64523C6.57412 4.43733 6.84806 4.32301 7.13857 4.32301H7.19891C7.65656 4.32301 8.06988 4.61439 8.22741 5.04827C8.27067 5.16791 8.2931 5.2934 8.2931 5.42154L8.29363 6.09896H6.04491V5.42101ZM8.89799 6.10084H8.61496L8.61389 5.4229C8.61389 5.25806 8.58559 5.09589 8.52952 4.94116C8.32606 4.38179 7.79205 4.00586 7.19983 4.00586H7.14002C6.76354 4.00586 6.40843 4.15368 6.14035 4.4222C5.87281 4.69072 5.72543 5.04591 5.72543 5.4229V6.10084H5.43759C5.26137 6.10084 5.11719 6.2444 5.11719 6.41987V9.16355C5.11719 9.32147 5.24695 9.45068 5.40555 9.45068H8.93003C9.08863 9.45068 9.21839 9.32147 9.21839 9.16355V6.41987C9.21839 6.2444 9.07421 6.10084 8.89799 6.10084Z"
    fill="currentColor"
  />
  <path
    d="M5.43549 9.13284H5.08549V9.48284H5.43549V9.13284ZM5.43549 6.4216L5.18854 6.17358L5.08549 6.27618V6.4216H5.43549ZM5.43602 6.42107V6.07107H5.29149L5.18907 6.17305L5.43602 6.42107ZM8.89535 6.42107L9.14232 6.17307L9.0399 6.07107H8.89535V6.42107ZM8.89588 6.4216H9.24588V6.2762L9.14286 6.1736L8.89588 6.4216ZM8.89588 9.13284V9.48284H9.24588V9.13284H8.89588ZM6.36692 4.64523L6.61451 4.89261L6.61483 4.8923L6.36692 4.64523ZM8.22741 5.04827L8.55656 4.92927L8.5564 4.92883L8.22741 5.04827ZM8.2931 5.42154H7.9431L7.9431 5.42182L8.2931 5.42154ZM8.29363 6.09896V6.44896H8.64391L8.64363 6.09868L8.29363 6.09896ZM6.04491 6.09896H5.69491V6.44896H6.04491V6.09896ZM8.61496 6.10084L8.26496 6.10139L8.26551 6.45084H8.61496V6.10084ZM8.61389 5.4229H8.26389L8.26389 5.42345L8.61389 5.4229ZM8.52952 4.94116L8.85858 4.82191L8.85844 4.82152L8.52952 4.94116ZM6.14035 4.4222L5.89266 4.17491L5.89241 4.17516L6.14035 4.4222ZM5.72543 6.10084V6.45084H6.07543V6.10084H5.72543ZM5.78549 9.13284V6.4216H5.08549V9.13284H5.78549ZM5.68245 6.66962L5.68298 6.66909L5.18907 6.17305L5.18854 6.17358L5.68245 6.66962ZM5.43602 6.77107H8.89535V6.07107H5.43602V6.77107ZM8.64838 6.66907L8.64891 6.6696L9.14286 6.1736L9.14232 6.17307L8.64838 6.66907ZM8.54588 6.4216V9.13284H9.24588V6.4216H8.54588ZM8.89588 8.78284H5.43549V9.48284H8.89588V8.78284ZM6.39491 5.42101C6.39491 5.22224 6.4721 5.03515 6.61451 4.89261L6.11933 4.39785C5.84629 4.67112 5.69491 5.03595 5.69491 5.42101H6.39491ZM6.61483 4.8923C6.75705 4.74959 6.94208 4.67301 7.13857 4.67301V3.97301C6.75405 3.97301 6.39118 4.12507 6.11901 4.39816L6.61483 4.8923ZM7.13857 4.67301H7.19891V3.97301H7.13857V4.67301ZM7.19891 4.67301C7.50767 4.67301 7.79058 4.87069 7.89843 5.16772L8.5564 4.92883C8.34918 4.35809 7.80544 3.97301 7.19891 3.97301V4.67301ZM7.89827 5.16728C7.92795 5.24938 7.9431 5.33463 7.9431 5.42154H8.6431C8.6431 5.25216 8.61339 5.08644 8.55656 4.92927L7.89827 5.16728ZM7.9431 5.42182L7.94363 6.09923L8.64363 6.09868L8.6431 5.42127L7.9431 5.42182ZM8.29363 5.74896H6.04491V6.44896H8.29363V5.74896ZM6.39491 6.09896V5.42101H5.69491V6.09896H6.39491ZM8.89799 5.75084H8.61496V6.45084H8.89799V5.75084ZM8.96496 6.10029L8.96389 5.42234L8.26389 5.42345L8.26496 6.10139L8.96496 6.10029ZM8.96389 5.4229C8.96389 5.21768 8.9286 5.01514 8.85858 4.82191L8.20046 5.0604C8.24258 5.17664 8.26389 5.29844 8.26389 5.4229H8.96389ZM8.85844 4.82152C8.60509 4.12499 7.94043 3.65586 7.19983 3.65586V4.35586C7.64367 4.35586 8.04703 4.63858 8.2006 5.06079L8.85844 4.82152ZM7.19983 3.65586H7.14002V4.35586H7.19983V3.65586ZM7.14002 3.65586C6.66988 3.65586 6.22586 3.84116 5.89266 4.17491L6.38805 4.66948C6.59099 4.4662 6.85721 4.35586 7.14002 4.35586V3.65586ZM5.89241 4.17516C5.55999 4.5088 5.37543 4.95262 5.37543 5.4229H6.07543C6.07543 5.13919 6.18563 4.87263 6.38829 4.66923L5.89241 4.17516ZM5.37543 5.4229V6.10084H6.07543V5.4229H5.37543ZM5.72543 5.75084H5.43759V6.45084H5.72543V5.75084ZM5.43759 5.75084C5.06949 5.75084 4.76719 6.04969 4.76719 6.41987H5.46719C5.46719 6.42997 5.46271 6.43815 5.45826 6.44257C5.45384 6.44698 5.44633 6.45084 5.43759 6.45084V5.75084ZM4.76719 6.41987V9.16355H5.46719V6.41987H4.76719ZM4.76719 9.16355C4.76719 9.51619 5.05507 9.80068 5.40555 9.80068V9.10068C5.43883 9.10068 5.46719 9.12676 5.46719 9.16355H4.76719ZM5.40555 9.80068H8.93003V9.10068H5.40555V9.80068ZM8.93003 9.80068C9.28051 9.80068 9.56839 9.51619 9.56839 9.16355H8.86839C8.86839 9.12676 8.89675 9.10068 8.93003 9.10068V9.80068ZM9.56839 9.16355V6.41987H8.86839V9.16355H9.56839ZM9.56839 6.41987C9.56839 6.04969 9.26609 5.75084 8.89799 5.75084V6.45084C8.88926 6.45084 8.88174 6.44698 8.87732 6.44257C8.87287 6.43815 8.86839 6.42997 8.86839 6.41987H9.56839Z"
    fill="currentColor"
  />
  <path
    d="M18.9615 3.43852C19.2695 3.50252 19.5175 3.56652 19.7055 3.63052C19.8935 3.69452 20.0655 3.77652 20.2215 3.87652C20.3775 3.97252 20.4875 4.09252 20.5515 4.23652C20.6195 4.38052 20.6535 4.55452 20.6535 4.75852C20.6535 4.99052 20.6035 5.19652 20.5035 5.37652C20.4075 5.55252 20.2775 5.68852 20.1135 5.78452C19.9535 5.88052 19.7835 5.95252 19.6035 6.00052C19.4275 6.04852 19.2455 6.07252 19.0575 6.07252C18.4855 6.07252 18.0495 5.93852 17.7495 5.67052C17.4535 5.39852 17.2795 5.05852 17.2275 4.65052H18.0915C18.1515 4.86652 18.2535 5.02452 18.3975 5.12452C18.5455 5.22452 18.7635 5.27452 19.0515 5.27452C19.2915 5.27452 19.4735 5.23252 19.5975 5.14852C19.7255 5.06452 19.7895 4.94652 19.7895 4.79452C19.7895 4.69852 19.7535 4.62252 19.6815 4.56652C19.6135 4.50652 19.5295 4.46252 19.4295 4.43452C19.3295 4.40652 19.1515 4.36452 18.8955 4.30852C18.8755 4.30452 18.8595 4.30252 18.8475 4.30252C18.8395 4.29852 18.8255 4.29452 18.8055 4.29052C18.7895 4.28652 18.7735 4.28252 18.7575 4.27852C18.5415 4.23452 18.3595 4.18652 18.2115 4.13452C18.0635 4.08252 17.9175 4.01052 17.7735 3.91852C17.6295 3.82652 17.5195 3.70852 17.4435 3.56452C17.3715 3.42052 17.3355 3.24852 17.3355 3.04852C17.3355 2.63252 17.4915 2.30852 17.8035 2.07652C18.1155 1.84452 18.4875 1.72852 18.9195 1.72852C19.4475 1.72852 19.8475 1.85052 20.1195 2.09452C20.3955 2.33452 20.5595 2.64652 20.6115 3.03052H19.7415C19.6375 2.69452 19.3655 2.52652 18.9255 2.52652C18.6815 2.52652 18.4995 2.57252 18.3795 2.66452C18.2595 2.75252 18.1995 2.86852 18.1995 3.01252C18.1995 3.12852 18.2495 3.21252 18.3495 3.26452C18.4535 3.31652 18.6575 3.37452 18.9615 3.43852Z"
    fill="currentColor"
  />
  <path
    d="M22.8644 2.62852C23.4044 2.62852 23.8304 2.81452 24.1424 3.18652C24.4584 3.55852 24.5944 4.02052 24.5504 4.57252H22.0184C22.0464 4.82852 22.1384 5.02452 22.2944 5.16052C22.4504 5.29652 22.6444 5.36452 22.8764 5.36452C23.0444 5.36452 23.1944 5.32852 23.3264 5.25652C23.4584 5.18052 23.5524 5.07852 23.6084 4.95052H24.4964C24.3804 5.32252 24.1764 5.60252 23.8844 5.79052C23.5924 5.97852 23.2584 6.07252 22.8824 6.07252C22.3704 6.07252 21.9524 5.91052 21.6284 5.58652C21.3044 5.26252 21.1424 4.85252 21.1424 4.35652C21.1424 3.86052 21.3044 3.44852 21.6284 3.12052C21.9524 2.79252 22.3644 2.62852 22.8644 2.62852ZM22.8584 3.33652C22.6544 3.33652 22.4844 3.39252 22.3484 3.50452C22.2124 3.61252 22.1164 3.75852 22.0604 3.94252H23.6384C23.5904 3.75852 23.4984 3.61252 23.3624 3.50452C23.2264 3.39252 23.0584 3.33652 22.8584 3.33652Z"
    fill="currentColor"
  />
  <path
    d="M26.7725 6.07252C26.2805 6.07252 25.8705 5.90852 25.5425 5.58052C25.2185 5.25252 25.0565 4.84252 25.0565 4.35052C25.0565 3.85852 25.2185 3.44852 25.5425 3.12052C25.8705 2.79252 26.2825 2.62852 26.7785 2.62852C27.1945 2.62852 27.5565 2.74852 27.8645 2.98852C28.1765 3.22452 28.3625 3.54652 28.4225 3.95452H27.5405C27.4925 3.78252 27.3985 3.65052 27.2585 3.55852C27.1225 3.46652 26.9625 3.42052 26.7785 3.42052C26.5185 3.42052 26.3105 3.50652 26.1545 3.67852C25.9985 3.85052 25.9225 4.07452 25.9265 4.35052C25.9225 4.62652 25.9985 4.85052 26.1545 5.02252C26.3145 5.19452 26.5205 5.28052 26.7725 5.28052C26.9565 5.28052 27.1185 5.23452 27.2585 5.14252C27.3985 5.05052 27.4925 4.91652 27.5405 4.74052H28.4225C28.3585 5.16052 28.1705 5.48852 27.8585 5.72452C27.5505 5.95652 27.1885 6.07252 26.7725 6.07252Z"
    fill="currentColor"
  />
  <path
    d="M31.1325 2.70052H31.9905V6.00052H31.1325V5.54452C30.8805 5.89652 30.5405 6.07252 30.1125 6.07252C29.7485 6.07252 29.4605 5.95652 29.2485 5.72452C29.0405 5.48852 28.9365 5.17052 28.9365 4.77052V2.70052H29.7945V4.58452C29.7945 4.80852 29.8405 4.97652 29.9325 5.08852C30.0285 5.20052 30.1845 5.25652 30.4005 5.25652C30.6365 5.25652 30.8165 5.18652 30.9405 5.04652C31.0685 4.90652 31.1325 4.70252 31.1325 4.43452V2.70052Z"
    fill="currentColor"
  />
  <path
    d="M34.5597 2.62852C34.6157 2.62852 34.6797 2.63252 34.7517 2.64052V3.52252C34.6637 3.51452 34.5937 3.51052 34.5417 3.51052C34.2377 3.51052 33.9917 3.59052 33.8037 3.75052C33.6197 3.90652 33.5277 4.16652 33.5277 4.53052V6.00052H32.6697V2.70052H33.5277V3.27652C33.7317 2.84452 34.0757 2.62852 34.5597 2.62852Z"
    fill="currentColor"
  />
  <path
    d="M36.8039 2.62852C37.3439 2.62852 37.7699 2.81452 38.0819 3.18652C38.3979 3.55852 38.5339 4.02052 38.4899 4.57252H35.9579C35.9859 4.82852 36.0779 5.02452 36.2339 5.16052C36.3899 5.29652 36.5839 5.36452 36.8159 5.36452C36.9839 5.36452 37.1339 5.32852 37.2659 5.25652C37.3979 5.18052 37.4919 5.07852 37.5479 4.95052H38.4359C38.3199 5.32252 38.1159 5.60252 37.8239 5.79052C37.5319 5.97852 37.1979 6.07252 36.8219 6.07252C36.3099 6.07252 35.8919 5.91052 35.5679 5.58652C35.2439 5.26252 35.0819 4.85252 35.0819 4.35652C35.0819 3.86052 35.2439 3.44852 35.5679 3.12052C35.8919 2.79252 36.3039 2.62852 36.8039 2.62852ZM36.7979 3.33652C36.5939 3.33652 36.4239 3.39252 36.2879 3.50452C36.1519 3.61252 36.0559 3.75852 35.9999 3.94252H37.5779C37.5299 3.75852 37.4379 3.61252 37.3019 3.50452C37.1659 3.39252 36.9979 3.33652 36.7979 3.33652Z"
    fill="currentColor"
  />
  <path
    d="M19.4715 12.0725C18.8475 12.0725 18.3295 11.8665 17.9175 11.4545C17.5055 11.0385 17.2995 10.5205 17.2995 9.90052C17.2995 9.28052 17.5055 8.76452 17.9175 8.35252C18.3295 7.93652 18.8475 7.72852 19.4715 7.72852C19.9675 7.72852 20.3975 7.86852 20.7615 8.14852C21.1295 8.42452 21.3755 8.78852 21.4995 9.24052H20.5815C20.4815 9.02052 20.3335 8.85052 20.1375 8.73052C19.9455 8.60652 19.7215 8.54452 19.4655 8.54452C19.0815 8.54452 18.7675 8.67252 18.5235 8.92852C18.2835 9.18052 18.1635 9.50452 18.1635 9.90052C18.1635 10.2965 18.2835 10.6225 18.5235 10.8785C18.7675 11.1305 19.0815 11.2565 19.4655 11.2565C19.7215 11.2565 19.9455 11.1965 20.1375 11.0765C20.3335 10.9525 20.4815 10.7805 20.5815 10.5605H21.4995C21.3755 11.0125 21.1295 11.3785 20.7615 11.6585C20.3975 11.9345 19.9675 12.0725 19.4715 12.0725Z"
    fill="currentColor"
  />
  <path
    d="M22.4901 9.12052C22.8221 8.79252 23.2281 8.62852 23.7081 8.62852C24.1881 8.62852 24.5941 8.79252 24.9261 9.12052C25.2621 9.44852 25.4301 9.85852 25.4301 10.3505C25.4301 10.8465 25.2641 11.2585 24.9321 11.5865C24.6041 11.9105 24.1961 12.0725 23.7081 12.0725C23.2241 12.0725 22.8161 11.9085 22.4841 11.5805C22.1561 11.2525 21.9921 10.8425 21.9921 10.3505C21.9921 9.85852 22.1581 9.44852 22.4901 9.12052ZM24.3141 9.69652C24.1541 9.52852 23.9521 9.44452 23.7081 9.44452C23.4641 9.44452 23.2601 9.52852 23.0961 9.69652C22.9361 9.86452 22.8561 10.0825 22.8561 10.3505C22.8561 10.6185 22.9361 10.8365 23.0961 11.0045C23.2601 11.1725 23.4641 11.2565 23.7081 11.2565C23.9521 11.2565 24.1541 11.1725 24.3141 11.0045C24.4781 10.8365 24.5601 10.6185 24.5601 10.3505C24.5601 10.0825 24.4781 9.86452 24.3141 9.69652Z"
    fill="currentColor"
  />
  <path
    d="M27.915 8.62852C28.287 8.62852 28.579 8.74452 28.791 8.97652C29.003 9.20852 29.109 9.52652 29.109 9.93052V12.0005H28.251V10.1165C28.251 9.89252 28.203 9.72452 28.107 9.61252C28.011 9.50052 27.853 9.44452 27.633 9.44452C27.137 9.44452 26.889 9.71852 26.889 10.2665V12.0005H26.031V8.70052H26.889V9.15052C27.137 8.80252 27.479 8.62852 27.915 8.62852Z"
    fill="currentColor"
  />
  <path
    d="M31.6474 8.62852C32.0194 8.62852 32.3114 8.74452 32.5234 8.97652C32.7354 9.20852 32.8414 9.52652 32.8414 9.93052V12.0005H31.9834V10.1165C31.9834 9.89252 31.9354 9.72452 31.8394 9.61252C31.7434 9.50052 31.5854 9.44452 31.3654 9.44452C30.8694 9.44452 30.6214 9.71852 30.6214 10.2665V12.0005H29.7634V8.70052H30.6214V9.15052C30.8694 8.80252 31.2114 8.62852 31.6474 8.62852Z"
    fill="currentColor"
  />
  <path
    d="M35.1398 8.62852C35.6798 8.62852 36.1058 8.81452 36.4178 9.18652C36.7338 9.55852 36.8698 10.0205 36.8258 10.5725H34.2938C34.3218 10.8285 34.4138 11.0245 34.5698 11.1605C34.7258 11.2965 34.9198 11.3645 35.1518 11.3645C35.3198 11.3645 35.4698 11.3285 35.6018 11.2565C35.7338 11.1805 35.8278 11.0785 35.8838 10.9505H36.7718C36.6558 11.3225 36.4518 11.6025 36.1598 11.7905C35.8678 11.9785 35.5338 12.0725 35.1578 12.0725C34.6458 12.0725 34.2278 11.9105 33.9038 11.5865C33.5798 11.2625 33.4178 10.8525 33.4178 10.3565C33.4178 9.86052 33.5798 9.44852 33.9038 9.12052C34.2278 8.79252 34.6398 8.62852 35.1398 8.62852ZM35.1338 9.33652C34.9298 9.33652 34.7598 9.39252 34.6238 9.50452C34.4878 9.61252 34.3918 9.75852 34.3358 9.94252H35.9138C35.8658 9.75852 35.7738 9.61252 35.6378 9.50452C35.5018 9.39252 35.3338 9.33652 35.1338 9.33652Z"
    fill="currentColor"
  />
  <path
    d="M39.0479 12.0725C38.5559 12.0725 38.1459 11.9085 37.8179 11.5805C37.4939 11.2525 37.3319 10.8425 37.3319 10.3505C37.3319 9.85852 37.4939 9.44852 37.8179 9.12052C38.1459 8.79252 38.5579 8.62852 39.0539 8.62852C39.4699 8.62852 39.8319 8.74852 40.1399 8.98852C40.4519 9.22452 40.6379 9.54652 40.6979 9.95452H39.8159C39.7679 9.78252 39.6739 9.65052 39.5339 9.55852C39.3979 9.46652 39.2379 9.42052 39.0539 9.42052C38.7939 9.42052 38.5859 9.50652 38.4299 9.67852C38.2739 9.85052 38.1979 10.0745 38.2019 10.3505C38.1979 10.6265 38.2739 10.8505 38.4299 11.0225C38.5899 11.1945 38.7959 11.2805 39.0479 11.2805C39.2319 11.2805 39.3939 11.2345 39.5339 11.1425C39.6739 11.0505 39.7679 10.9165 39.8159 10.7405H40.6979C40.6339 11.1605 40.4459 11.4885 40.1339 11.7245C39.8259 11.9565 39.4639 12.0725 39.0479 12.0725Z"
    fill="currentColor"
  />
  <path
    d="M43.6959 11.1125L43.8399 11.8085C43.7399 11.8765 43.5959 11.9385 43.4079 11.9945C43.2239 12.0465 43.0399 12.0725 42.8559 12.0725C42.4999 12.0725 42.2039 11.9605 41.9679 11.7365C41.7359 11.5125 41.6199 11.1765 41.6199 10.7285V9.51052H41.0319V8.70052H41.6199V7.98652L42.4779 7.80052V8.70052H43.7019V9.51052H42.4779V10.6805C42.4779 11.0765 42.6539 11.2745 43.0059 11.2745C43.1619 11.2745 43.3919 11.2205 43.6959 11.1125Z"
    fill="currentColor"
  />
  <path
    d="M44.8321 7.17652C44.9881 7.17652 45.1161 7.22452 45.2161 7.32052C45.3161 7.41252 45.3661 7.53252 45.3661 7.68052C45.3661 7.82852 45.3161 7.95052 45.2161 8.04652C45.1161 8.14252 44.9881 8.19052 44.8321 8.19052C44.6801 8.19052 44.5521 8.14252 44.4481 8.04652C44.3481 7.95052 44.2981 7.82852 44.2981 7.68052C44.2981 7.53652 44.3481 7.41652 44.4481 7.32052C44.5521 7.22452 44.6801 7.17652 44.8321 7.17652ZM44.4001 12.0005V8.70052H45.2581V12.0005H44.4001Z"
    fill="currentColor"
  />
  <path
    d="M46.367 9.12052C46.699 8.79252 47.105 8.62852 47.585 8.62852C48.065 8.62852 48.471 8.79252 48.803 9.12052C49.139 9.44852 49.307 9.85852 49.307 10.3505C49.307 10.8465 49.141 11.2585 48.809 11.5865C48.481 11.9105 48.073 12.0725 47.585 12.0725C47.101 12.0725 46.693 11.9085 46.361 11.5805C46.033 11.2525 45.869 10.8425 45.869 10.3505C45.869 9.85852 46.035 9.44852 46.367 9.12052ZM48.191 9.69652C48.031 9.52852 47.829 9.44452 47.585 9.44452C47.341 9.44452 47.137 9.52852 46.973 9.69652C46.813 9.86452 46.733 10.0825 46.733 10.3505C46.733 10.6185 46.813 10.8365 46.973 11.0045C47.137 11.1725 47.341 11.2565 47.585 11.2565C47.829 11.2565 48.031 11.1725 48.191 11.0045C48.355 10.8365 48.437 10.6185 48.437 10.3505C48.437 10.0825 48.355 9.86452 48.191 9.69652Z"
    fill="currentColor"
  />
  <path
    d="M51.7919 8.62852C52.1639 8.62852 52.4559 8.74452 52.6679 8.97652C52.8799 9.20852 52.9859 9.52652 52.9859 9.93052V12.0005H52.1279V10.1165C52.1279 9.89252 52.0799 9.72452 51.9839 9.61252C51.8879 9.50052 51.7299 9.44452 51.5099 9.44452C51.0139 9.44452 50.7659 9.71852 50.7659 10.2665V12.0005H49.9079V8.70052H50.7659V9.15052C51.0139 8.80252 51.3559 8.62852 51.7919 8.62852Z"
    fill="currentColor"
  />
</svg>
