<svg width="30" height="14" viewBox="0 0 30 14" fill="none" xmlns="http://www.w3.org/2000/svg">
<path fill-rule="evenodd" clip-rule="evenodd" d="M15.0244 8.4104L15.8752 5.97852H16.4921L17.3429 8.4104H16.726L16.5559 7.90725H15.7901L15.6412 8.4104H15.0244ZM15.9603 7.44603L16.2054 6.60745L16.4282 7.44603H15.9603Z" fill="currentColor"/>
<path fill-rule="evenodd" clip-rule="evenodd" d="M11.9287 4.07171C11.3387 2.91028 10.3733 1.97365 9.18369 1.40832C7.99405 0.84299 6.64718 0.680842 5.35373 0.947237C4.06028 1.21363 2.8932 1.89354 2.03504 2.88063C1.17687 3.86772 0.676011 5.10632 0.6108 6.4027C0.545588 7.69907 0.9197 8.98012 1.67462 10.0455C2.42954 11.1108 3.5227 11.9004 4.78312 12.2907C6.04353 12.681 7.40012 12.6501 8.64071 12.2027C9.60667 11.8543 10.4599 11.2687 11.1225 10.5079H29.0225C29.0225 9.71667 28.3811 9.07523 27.5898 9.07523H10.4374L10.4369 9.0749C9.90047 9.91237 9.09657 10.5516 8.15091 10.8927C7.20526 11.2337 6.17117 11.2573 5.2104 10.9598C4.24962 10.6623 3.41635 10.0604 2.84089 9.24833C2.26544 8.43624 1.98027 7.45974 2.02998 6.47156C2.07969 5.48337 2.46147 4.53923 3.11563 3.7868C3.76978 3.03438 4.6594 2.5161 5.64536 2.31304C6.63131 2.10997 7.65799 2.23357 8.56481 2.66451C9.25561 2.99278 9.84717 3.48529 10.2886 4.09268H11.8859L11.9287 4.07171Z" fill="currentColor"/>
<path d="M13.1103 4.44922H10.3525C10.5008 5.35525 11.3904 6.20283 12.3689 6.20283H14.5632C14.5929 6.11514 14.5929 5.99824 14.5929 5.91056C14.5929 5.09221 13.9405 4.44922 13.1103 4.44922Z" fill="currentColor"/>
<path d="M10.5898 8.54163V6.34961H14.504C14.3918 6.71837 14.1261 7.02895 13.7815 7.20801L14.6859 8.54163H13.132L12.5324 7.37253H11.9242V8.54163H10.5898Z" fill="currentColor"/>
<path d="M3.0791 8.54107V4.44922H4.41351C4.41351 4.44922 4.79901 4.44922 5.00658 5.03377C5.54035 6.58283 5.59966 6.78742 5.59966 6.78742C5.59966 6.78742 5.71827 6.40746 6.19273 5.03377C6.4003 4.44922 6.7858 4.44922 6.7858 4.44922H8.12021V8.54107H6.7858V6.34901H6.63753L5.89619 8.54107H5.30312L4.56178 6.34901H4.41351V8.54107H3.0791Z" fill="currentColor"/>
<rect x="8.68848" y="4.44922" width="1.36067" height="4.09186" fill="currentColor"/>
<path d="M19.6618 6.27339L19.3215 6.77654C19.1726 6.56902 18.8385 6.45606 18.5345 6.54593C18.3716 6.59409 18.2639 6.68777 18.1716 6.80332C18.0793 6.91887 18.0283 7.0612 18.0264 7.20824C18.0245 7.35528 18.0718 7.49884 18.1611 7.61668C18.2502 7.73452 18.3576 7.80997 18.52 7.86015C18.8325 7.95673 19.224 7.81962 19.3641 7.59416L19.7073 8.02856C19.5685 8.19501 19.3887 8.32505 19.1837 8.40531C18.9185 8.50915 18.626 8.52389 18.3514 8.44732C18.0768 8.37071 17.8355 8.20704 17.6649 7.98163C17.4942 7.75622 17.4037 7.48164 17.4073 7.20042C17.411 6.9192 17.5086 6.64699 17.6851 6.42596C17.8615 6.20493 18.0675 6.04624 18.3857 5.95893C18.8323 5.83641 19.3428 5.95888 19.6618 6.27339Z" fill="currentColor"/>
<path d="M22.1286 6.25777L21.7883 6.76092C21.6394 6.5534 21.3053 6.44043 21.0013 6.53031C20.8384 6.57846 20.7307 6.67214 20.6384 6.78769C20.5461 6.90325 20.4951 7.04558 20.4932 7.19261C20.4913 7.33965 20.5386 7.48321 20.6278 7.60105C20.717 7.7189 20.8244 7.79435 20.9868 7.84452C21.2993 7.9411 21.6908 7.80399 21.8309 7.57854L22.174 8.01293C22.0353 8.17938 21.8555 8.30943 21.6505 8.38968C21.3853 8.49352 21.0928 8.50826 20.8182 8.43169C20.5436 8.35508 20.3023 8.19142 20.1317 7.96601C19.961 7.7406 19.8705 7.46601 19.8741 7.18479C19.8778 6.90357 19.9754 6.63136 20.1518 6.41033C20.3283 6.1893 20.5342 6.03062 20.8525 5.9433C21.2991 5.82079 21.8096 5.94326 22.1286 6.25777Z" fill="currentColor"/>
<path fill-rule="evenodd" clip-rule="evenodd" d="M24.001 6.52555V5.98047L22.427 5.98047V5.98051H22.4268V8.45433H23.0649V8.45426H24.0434V7.90919L23.0649 7.90919V7.48997H23.8307V6.94489L23.0649 6.94489V6.52555L24.001 6.52555Z" fill="currentColor"/>
<path fill-rule="evenodd" clip-rule="evenodd" d="M24.4268 7.1543V8.4541H25.0861V7.6874H26.1447C26.5374 7.6874 26.881 7.48973 26.9792 7.1543H24.4268Z" fill="currentColor"/>
<path fill-rule="evenodd" clip-rule="evenodd" d="M26.0639 5.99948C26.7053 5.99948 26.9786 6.4905 26.9786 6.91099C26.9786 6.96355 26.9786 7.01611 26.9786 7.06867H25.5207C25.4127 7.06867 25.2861 7.05658 25.1428 7.01611C24.6049 6.86423 24.2249 6.399 24.1709 5.97852L26.0639 5.99948Z" fill="currentColor"/>
<path d="M29.5737 5.89648H27.1914V6.48349H28.0422V8.66381H28.7654V6.48349H29.5737V5.89648Z" fill="currentColor"/>
</svg>
