
<svg width="41" height="10" viewBox="0 0 41 10" fill="none" xmlns="http://www.w3.org/2000/svg">
<g id="Humo">
<path fill-rule="evenodd" clip-rule="evenodd" d="M35.8589 9.24271C32.9781 9.24271 31.4184 7.06916 31.4184 4.36031C31.4184 1.70212 33.3684 0 35.9845 0C38.6504 0 40.5 1.50312 40.5 4.23621C40.5007 7.00675 38.7396 9.24271 35.8589 9.24271ZM35.9592 1.22996C34.1104 1.22996 33.506 2.89463 33.506 4.43521C33.506 5.9633 34.0717 8.01274 35.9838 8.01274C37.8326 8.01274 38.411 5.87591 38.411 4.42272C38.4125 2.93208 37.7575 1.22996 35.9592 1.22996Z" fill="#C0C9D4"/>
<path d="M30.119 0.97516C30.1119 0.776714 30.0271 0.588739 29.8824 0.450815C29.7378 0.312892 29.5447 0.235779 29.3436 0.235714H28.459C28.3149 0.235692 28.1737 0.275238 28.0511 0.349929C27.9284 0.42462 27.8293 0.531517 27.7646 0.658674L25.7656 4.65844L23.7085 0.64252C23.6424 0.519654 23.5437 0.416879 23.4229 0.345214C23.3022 0.273549 23.164 0.235696 23.0231 0.235714H22.131C21.9288 0.235828 21.7346 0.313829 21.5896 0.453142C21.4447 0.592454 21.3605 0.782095 21.3549 0.981769L21.1475 8.21909C21.1445 8.3216 21.1624 8.42366 21.2 8.51923C21.2377 8.61479 21.2944 8.70193 21.3668 8.77546C21.4391 8.849 21.5257 8.90744 21.6213 8.94734C21.717 8.98724 21.8198 9.00777 21.9236 9.00773H21.9511C22.1539 9.00778 22.3486 8.92944 22.4937 8.78946C22.6387 8.64948 22.7226 8.45899 22.7272 8.25874L22.8224 4.22446C22.835 3.78975 22.8477 3.00698 22.835 2.78376H22.8603C22.98 3.1037 23.2252 3.58512 23.4275 3.98249C23.4764 4.07846 23.5228 4.16967 23.5643 4.25237L24.8281 6.52871C24.8982 6.65487 25.0011 6.76025 25.1263 6.83393C25.2514 6.90762 25.3942 6.94695 25.5399 6.94785C25.6856 6.94874 25.8289 6.91118 25.955 6.83904C26.081 6.7669 26.1853 6.66281 26.257 6.53753L27.5654 4.04089C27.7787 3.63114 28.1185 2.92254 28.2694 2.57227H28.2947C28.2947 2.86172 28.3073 3.3124 28.3191 3.73613C28.324 3.91174 28.3289 4.08406 28.3326 4.23694L28.4493 8.26241C28.4551 8.46195 28.5394 8.65141 28.6843 8.79057C28.8292 8.92972 29.0233 9.00762 29.2254 9.00773H29.6038C29.708 9.00769 29.8112 8.98693 29.9071 8.94667C30.003 8.90641 30.0897 8.84749 30.1621 8.77341C30.2345 8.69933 30.291 8.61161 30.3283 8.51549C30.3656 8.41937 30.3829 8.31682 30.3792 8.21395L30.119 0.97516Z" fill="#C0C9D4"/>
<path d="M18.3077 0.224696H18.7887C18.9917 0.225469 19.1862 0.30548 19.3298 0.447291C19.4734 0.589102 19.5544 0.781216 19.5552 0.981765V5.50435C19.5552 5.62184 19.5522 5.7386 19.5455 5.85609C19.5241 6.31973 19.4308 6.77738 19.2689 7.21308C19.1279 7.58737 18.9145 7.93103 18.6408 8.22496C18.3732 8.50387 18.051 8.72598 17.6936 8.87776C17.6572 8.89318 17.6201 8.9086 17.5829 8.92255C16.9666 9.1612 16.5265 9.20819 15.873 9.21186C15.4554 9.22569 15.0374 9.20234 14.6241 9.14211C14.22 9.07686 13.8313 8.9395 13.477 8.73677C13.14 8.55017 12.8442 8.29874 12.6072 7.99732C12.3576 7.67243 12.1711 7.30471 12.0571 6.91275C11.925 6.45484 11.8606 5.98046 11.866 5.50435V0.981765C11.866 0.881959 11.8859 0.78313 11.9246 0.690922C11.9633 0.598714 12.0199 0.514933 12.0914 0.44436C12.1628 0.373787 12.2477 0.317803 12.341 0.279609C12.4344 0.241416 12.5344 0.221758 12.6355 0.221758H13.1164C13.2175 0.221758 13.3175 0.241416 13.4109 0.279609C13.5042 0.317803 13.5891 0.373787 13.6605 0.44436C13.732 0.514933 13.7886 0.598714 13.8273 0.690922C13.866 0.78313 13.8859 0.881959 13.8859 0.981765V5.50435C13.8859 6.82243 14.5141 7.54279 15.7124 7.60373C16.9108 7.54279 17.5383 6.82243 17.5383 5.50435V0.981765C17.5391 0.780708 17.6205 0.58815 17.7647 0.446256C17.9089 0.304361 18.1042 0.224694 18.3077 0.224696Z" fill="#C0C9D4"/>
<path d="M4.68606 9.49164C3.8802 9.20599 3.29736 8.6347 2.89146 7.8277C2.38371 6.81729 2.00679 5.40449 2.01572 4.26044C2.02464 3.18395 2.09006 2.60311 2.42385 2.04798C1.87891 2.41438 1.49293 2.96936 1.34218 3.60324C0.945942 5.3619 1.80533 8.34905 3.48322 9.37121L3.48618 9.37295C3.51775 9.39142 3.56821 9.42094 3.52931 9.48356C2.46548 9.27722 1.44254 7.88424 0.942226 5.94934C0.902093 5.95989 0.86488 5.97923 0.833349 6.00592C0.801818 6.03262 0.776778 6.06599 0.760089 6.10355C0.388381 6.70201 0.446368 7.32396 0.737043 7.90921C1.36597 9.17368 2.36735 9.83823 3.65866 9.97775C4.00361 10.0152 4.3545 10.0203 4.68829 9.87201L4.6967 9.86831C4.79696 9.82431 4.91682 9.7717 4.92767 9.65171C4.93924 9.52272 4.8483 9.51354 4.76533 9.50517C4.73637 9.50225 4.70838 9.49943 4.68606 9.49164Z" fill="#C0C9D4"/>
<path d="M8.13104 3.31539C8.20984 1.14184 8.21505 0.759269 7.80171 0.774689C8.418 -0.276836 10.2386 0.174028 10.1591 1.94811V8.30646C10.1591 8.47473 10.0914 8.6361 9.97095 8.75508C9.85049 8.87406 9.68712 8.9409 9.51677 8.9409H8.77335C8.603 8.9409 8.43963 8.87406 8.31917 8.75508C8.19871 8.6361 8.13104 8.47473 8.13104 8.30646V4.9896C7.34897 4.99548 5.11055 4.96097 4.27941 4.94555C4.3426 7.35921 4.85556 8.52822 5.12542 8.98056C5.13711 9.00031 5.14238 9.02313 5.14051 9.04593C5.13863 9.06874 5.12971 9.09042 5.11494 9.10805C5.10018 9.12568 5.08029 9.1384 5.05796 9.14449C5.03563 9.15058 5.01195 9.14975 4.99012 9.1421C3.52485 8.66481 2.90335 6.56763 2.72345 5.39714C2.5309 4.14736 2.64018 2.58696 3.13901 1.55232C3.53971 0.724022 4.26677 0.50373 4.75074 0.4303C4.73582 0.481803 4.71919 0.536564 4.70135 0.595313C4.54317 1.11619 4.28982 1.95046 4.28982 3.60544C4.48256 3.60602 4.70724 3.60673 4.95185 3.60752C5.95264 3.61072 7.28691 3.61498 8.13104 3.61498V3.31539Z" fill="#C0C9D4"/>
</g>
</svg>
