<svg
  viewBox="0 0 40 24"
  fill="none"
  xmlns="http://www.w3.org/2000/svg"
  preserveAspectRatio="xMidYMid meet"
  height="100%"
  width="100%"
>
  <path
    d="M20.6857 10.0938C20.7025 7.69563 22.9292 6.01655 26.0971 6H26.1925C27.4181 6.00736 28.4024 6.27402 29.1714 6.54989L28.6026 9.17425C27.1562 8.51402 25.8781 8.56184 25.416 8.62069C24.4823 8.74023 24.0556 9.21287 24.0463 9.65793C24.0335 10.2437 24.7635 10.6235 25.6408 11.08C26.9478 11.7601 28.5816 12.6102 28.5726 14.5646C28.5633 17.1375 26.3441 18.8 22.946 18.8C21.5015 18.7853 20.1075 18.4855 19.3534 18.1434L19.9372 15.429L19.9964 15.4565C20.7391 15.802 21.6748 16.2374 23.2566 16.2106C24.1866 16.1977 25.1821 15.8299 25.1914 15.0005C25.197 14.4579 24.776 14.0699 23.5149 13.463C22.2892 12.869 20.6651 11.8759 20.6857 10.0938Z"
    fill="#1434CB"
  ></path>
  <path
    fill-rule="evenodd"
    clip-rule="evenodd"
    d="M33.2563 7.13476C33.4883 6.58303 34.0104 6.22625 34.6316 6.22625H37.3897L40 18.6088H37.0099L36.6207 16.7568H32.4723L31.8005 18.6088H28.4062L33.2563 7.13476ZM35.105 9.57338L36.0855 14.2207H33.4041L35.105 9.57338Z"
    fill="#1434CB"
  ></path>
  <path d="M16.5748 6.22625L13.899 18.6088H17.1324L19.8063 6.22625H16.5748Z" fill="#1434CB"></path>
  <path
    d="M11.7921 6.22625L8.42774 14.6548L7.06553 7.4897C6.90836 6.68786 6.2759 6.22625 5.57608 6.22625H0.0748468L0 6.58487C1.12831 6.82947 2.41194 7.22119 3.18847 7.63866C3.66375 7.8943 3.80034 8.11866 3.95565 8.7274L6.53412 18.6088H9.94901L15.1864 6.22625H11.7921Z"
    fill="#1434CB"
  ></path>
</svg>
