<svg width="14" height="14" viewBox="0 0 14 14" fill="none" xmlns="http://www.w3.org/2000/svg">
<path fill-rule="evenodd" clip-rule="evenodd" d="M7 0C3.13401 0 0 3.13401 0 7C0 10.866 3.13401 14 7 14C10.866 14 14 10.866 14 7C14 3.13401 10.866 0 7 0ZM8.00127 8.34192L8 8.34202V9H6V8.5C6 7.17876 6.51359 6.93097 7.08414 6.65571C7.1289 6.63411 7.17401 6.61327 7.21925 6.59237C7.47027 6.4764 7.72529 6.35858 7.94666 6.1C8.77623 5.2864 8.15 4 7.10018 4.00784C6.87118 3.98937 6.64153 4.03456 6.4366 4.13842C6.23168 4.24229 6.05945 4.40078 5.93895 4.59639C5.8917 4.67309 5.85313 4.75433 5.82366 4.8386C5.77801 4.96913 5.75419 5.10733 5.75379 5.24685L3.75 5.2418C3.75305 4.03226 4.45184 2.89789 5.53072 2.35108C6.06515 2.08021 6.66406 1.96235 7.26128 2.01052C8.92297 2.14455 10.2866 3.56669 10.3 5.25C10.3109 6.62026 9.2663 7.93223 8.00127 8.34192ZM6 12H7.3C7.6866 12 8 11.6866 8 11.3V10H6.7C6.3134 10 6 10.3134 6 10.7V12Z" fill="#222D41" fill-opacity="0.321569"/>
</svg>
